<svg xmlns="http://www.w3.org/2000/svg" viewBox="0 0 197 32">
  <path d="M60 1.6L58.8 4l.9 6.6.8.4 6 1 .4 17.4c.1.5.1.6.8.8l2 .4 2.5-2.4 2-15.4 6.2.5 2.2-2.7L85 3.4 63.5 1.5c-3.2-.3-3-.3-3.5.1zm13 1l11.5 1.1-2 6.3-8.5-.6-.8 7-.1.4h-4v-8l-7.1-1-.5-.1-.7-6zm0 15l-1.2 10.1h-2.6V17.1h3.7v.5zM16.6 1.9l-7 1.7L8 6.2l.3 4.4-3 .1-1.7 2.6 2.2 6.4c4 .1 3.9 0 4 1.7l1 6.2 6.5 3 9.8-3 2-8-4.5-2.2 4.4-1.8c.8-.6 1.8-2.9 2.6-6.1l.6-3.1-14.6-4.8zm8.3 2.4l7 2.3-1.6 6-8.9 4 5.5 2.4 2 .7-1 4.2-6.8-1.4.2-3.1-1.6-.8c-1.6-.8-1.6-.7-1.5.9l.5 5.5L21 23l.3-.1 6.5 1.4-9 4-6-2.1-1.5-9h-4L5.8 11h4.7l-.7-7.2L17.6 2zm-5.7 16.1c.3.2.4.3.3.6l-.3 1.8L19 24v-.6l-.2-3c-.1-.4-.1-.4.5-.2z"/>
  <path d="M17.6 4.8c0 .4.2 5.6.4 6 0 .2.3.3 1.4.2l3.5-.3c.2-.2.5-3.4.4-3.5a40.5 40.5 0 00-5.5-2.6l-.2.2zm2.2 3l1.3.6v1l-.2 1-.7.1-1.3.1c-.7 0-.7 0-.8-.5V8.3c0-1 0-1.2.2-1.1l1.5.6zm69.5-5.3l-1.1 1.6-.4.6.2 2 .4 2.2c0 .2 0 .2-1.6.1h-1.6l-.6.9c-1.2 1.9-1.2 1.3 0 5.4l1 3.8c.2.1.7.2 1.5.2h2l.7.2.1.7 1.4 7.8c0 .2.2.4.4.4.5.2 14.6 2 15.4 2 .5 0 .7-.2 1.6-1.1l1-1 .8-2.8.8-3.4c.2-1 0-1-5-1.2-6-.3-5.6-.2-5.7-.9-.2-1-.7-7.7-.6-7.8l5 .2 6.2.2h1.1l.5-.8c1-1.6 1.3-2.4 2.2-5.9l.8-3.5h-.2c-.2-.2-19.9-.7-23.5-.7h-2l-.8.8zm9.5-.3l7.8.4-.3 3.1-.3 3.1h-1.8c-3.6-.2-4.7-.2-4.9 0a303.5 303.5 0 01.6 11.5c0 .8.2.8 5.8 1l5.3.2-.8 3.3c-.8 3.2-.9 3.3-1.2 3.3-.8 0-15.1-1.8-15.2-2l-.8-4.5-.7-5c-.1-.6-.5-.7-2.8-.7h-2l-.3-1a284.2 284.2 0 01-1.5-5.2 51 51 0 015.4.1c.2-.1.2-.3-.2-3.7-.6-4.4-.6-4.1-.1-4.1l8 .2zm13.5.5c1.7 0 3 .1 3.1.2L113.9 9c-.1.1-7.1-.1-7.2-.2l.2-3.1.3-3.2 5.2.2zm63.6-.3l-3.3.9c-.3 0-.6.3-1.1 1.4l-.8 1.3.3 1.7.3 1.8-1 .1-1.5.2c-.2.1-.6.6-.9 1.2l-.5 1 1 2.8 1 2.9h1.5l1.6.2.7 3.4.8 3.6c.1.2 5.4 2 5.6 2 .2 0 .3 0 .4-.3.2-.4.3-.4.5.1l.2.5 2.8-.1 3-.2c.2 0 .6-.6 1-1.2l.7-1 1-4.4c1.8-8.1 3.4-16.3 3.2-16.4-.1-.2-5-1.2-6.4-1.3l-1-.1-1 1.3c-1.3 1.4-1.2 1-1.6 4.5l-.3 2.2a153.6 153.6 0 01-2.4-8.7c-.3-.2-.7-.2-3.8.6zm4.8 4.8c2.4 8.1 2.5 8.4 2.7 8.1.2-.2.2-.5.7-4l.3-1.7 3.2-.1 3.4-.1-1.2 5.8-1.6 7-.4 1.6c-.1.1-3.5.5-4.8.5-.8 0-1 0-1-.3a181.4 181.4 0 01-1.4-7.9c-.2-.2-.2-.2-.4 0s-.2.6 0 3.7l.3 4.1v.5l-1.9-.6c-1-.4-2.2-.8-2.4-1l-.5-.1-.6-3.5-.7-3.8c-.1-.3-.3-.3-1.8-.3H171l-.8-2.4-.8-2.4c0-.1.7-.2 1.9-.1l2.1-.1c.2-.2.2-.5-.2-3l-.5-3.1a156.3 156.3 0 016.5-1.9l1.5 5.1zm8.4-3.6c2.6.4 3 .5 3 .7l-1 4.6-3.3.1-3.4.1.1-.4.5-3 .4-2.7.3.1 3.4.5zM139 2.2c-9.6.7-12.8.9-17.2 1h-3.4l-1.4 3.3.6 2.2.5 2.3-1.2.1a4 4 0 00-1.2.2h4.7a75.5 75.5 0 00-1.6-7.6l3.3-.2a484.4 484.4 0 0019-1.1c1.2 0 1.3 0 1.3.3L141 12l-7.6 1c-.2 0-.2-.3-.3-1.1v-1.2h-5v.4a107.6 107.6 0 001.8 9.6c0 .2 2.2 0 2.4-.3.2-.2.4-1.8.7-5.7 0-1.4 0-1.4.4-1.4l7-.9c.4 0 .5 0 .5.3L138.7 27h-7.3l-7.2-.2-1-4c-1.3-5-1.3-5.2-1.5-5.2h-4.2l-.4-1a72.3 72.3 0 01-2.2-5.4c-.2 0-.6.5-1.1 1.4l-.3.5 1.2 3.6 1.3 3.6h4l1 3.6 1.1 4.5.2.9h1.2l7.8.2h6.5l.7-1c.7-1.3.6-1 2.6-15a1114.1 1114.1 0 011.5-11.2c-.1-.2-.8-.2-3.7 0zM130.2 16v2.9l-.2 1.5-.4-2.3a136 136 0 01-.6-2.9v-.6h1.2V16zM34.5 3.2l-.9 1.2-.5.7.4 2.4.3 2.5 3.2.4 3 .4.2 3.7c.2 4.7.3 6.3.2 6.4l-1.8-.3-1.7-.4-.3.3c-.5.5-1.7 2.5-1.7 2.8a16.3 16.3 0 00.6 3.8v.4l2 .4 7.2 1.5 5 1 1-1c.8-.8 1.2-1.3 1.3-1.6l.5-2.4.4-2a55.4 55.4 0 00-7-1.5c-.1-.1 2.3-10.5 2.5-10.8l3.5.2c1.8.1 3.5.2 3.6.1.6-.2 2.9-5.7 2.7-6.8V4L55.6 4a999.6 999.6 0 01-17.2-1.2l-2.6-.1c-.8 0-.9 0-1.3.5zm4.8 0h.9v4.2c-.1.2-.4.2-2 0l-2-.1-.8-4.3s2.2 0 4 .2zM50 4l8 .6c0 .1-1.3 4.2-1.5 4.3l-3.8-.2c-2.7-.3-3.9-.3-4-.2-.3.1-.4.5-1 3a1491.6 1491.6 0 00-2.2 10l-.1.6.9.2a63 63 0 006.2 1.5l-1.1 4c0 .1-12.9-2.1-13.4-2.3-.3 0-.4-.2-.7-2.4-.1-1.2-.3-2.3-.2-2.4h.3l5.7 1.1h.4l-.1-6.1-.2-7c0-.9-.2-1-1.7-1h-1V3.3l.8.1L50 4zm95.3-.8l-.9 1.2-.5.7.4 2.4.3 2.5 3.2.4 3 .4.2 3.2a276.6 276.6 0 00.2 6.9l-3.4-.7a10.3 10.3 0 00-2 2.9c-.1.3.4 4.2.5 4.3l12 2.5 2.3.5 1-1 1-1 .3-1.4a50.4 50.4 0 01.8-3.5l-3.3-.8-3.5-.7-.4-.1 1.3-5.4 1.4-5.4 3.3.1c1.7.2 3.3.3 3.6.2.3 0 .5-.2 1-1.3.8-1.4 2-4.9 2-5.6v-.4l-5.5-.3-7.6-.6c-3.3-.2-9-.6-9.6-.5-.5 0-.7 0-1 .5zm4.6 0h1v4.4l-2-.1-2-.2-.7-4.2c0-.2.7-.2 3.7 0zm10.2.7l8.3.7h.4l-.7 2.2-.7 2.1h-.5c-.3 0-1.8 0-3.4-.2-3.8-.4-4-.4-4.3 0l-.4 1.4a236.7 236.7 0 01-2.5 11.3l-.1.7.7.2 5.6 1.3c.7.2.9.2.8.5a55.5 55.5 0 00-1.1 3.8l-13.5-2.4c-.2 0-.3-.6-.6-2.2-.3-2.7-.3-2.8 0-2.7a87 87 0 005.8 1.2h.4l-.1-5.8a222.5 222.5 0 00-.2-8c0-.1-.7-.2-1.7-.2h-1V3.2h.5l8.3.7z"/>
</svg>
