<svg xmlns="http://www.w3.org/2000/svg" viewBox="0 0 96 32">
  <path stroke="green" stroke-width=".4" d="M3.04.9c-.3.3-.51.64-.6.93-.26.98-.1 1.49.7 2.01l.4.27-.06.99c-.05.55-.13 1.27-.18 1.6a16.5 16.5 0 00.32 4.93L3.89 13c.11.5.25 1.12.33 1.4.08.26.15.65.18.89l.03.41-.64.22c-1.6.52-2.79 1.2-3.3 1.83l-.33.42.03 1.55c.02 1.4.28 4.02.4 4.15.15.14.26-.24.36-1.1.1-.79.15-.98.38-1.2a.86.86 0 00.28-.48c0-.25 0-.25.1.02.07.15.15.83.18 1.52.05.94.1 1.28.21 1.33.09.03.18.03.21-.01.09-.09.31-1.88.4-3.22.07-.93.12-1.1.36-1.35.29-.3 1-.56 1.92-.68l.58-.08.56.62c.57.6.59.62.9.48.19-.07.5-.33.7-.56.35-.42.39-.43.88-.36.87.11 1.85.26 3.02.44.66.1 1.37.15 1.72.12.99-.1.99-.09 1.05 3.3.03 1.54.08 2.84.13 2.87.04.05.14.06.22.03.12-.05.16-.5.23-2.07.07-2.15.3-4.78.41-4.9.13-.13.16.18.27 1.98.05 1.06.05 2.6 0 3.84-.1 2.28-.09 2.84.07 2.8.07-.01.14-.53.17-1.16l.18-2.6c.08-.78.2-2.51.28-3.82.15-2.38.15-2.4-.11-3.63l-.32-1.57c-.12-.65.14-.45.6.45.43.84.47 1 .55 2.04.1 1.55.32 1.73.53.43.12-.74.16-.83.35-.83.2 0 .28.34.28 1.24 0 1.02.21 3.06.33 3.18.14.15.18-.09.3-1.68.05-.81.16-1.55.22-1.62.16-.2.52-.04 1.17.47.58.47.83.87.98 1.64.06.33.16.61.2.61.27 0 .44-.17.53-.54.09-.3.17-.42.32-.42.32 0 .42.63.53 3.47.06 1.57.12 2.24.25 2.53.18.42.43.52.56.2.04-.09.07-1.34.06-2.75-.03-2.7.07-3.62.4-3.9.1-.1.47-.21.82-.28 1.1-.19 2.14-.7 3.56-1.77.44-.33.83-.6.88-.6.24 0 .46.67.67 2.08.15.97.32 1.35.5 1.15.1-.1.41-2.37.41-2.91 0-.22.08-.57.16-.77.09-.22.16-.64.18-.95 0-.31.04-.66.08-.78.15-.38.22.42.22 2.5 0 2.2.05 2.46.34 2.46.22 0 .34-.36.53-1.59.19-1.28.19-1.31.38-1.27.32.07.31.03 1.14 6.43l.3 2.16c.13 1.1.32 1.42.54.93.1-.24.12-1.08.1-3.4-.04-3.89.14-5.37.56-4.4.1.27.22.4.37.4.29 0 .37-.5.3-1.87-.06-1.13-.15-1.4-1.06-2.94-.28-.48-1.8-3.5-2.14-4.26-.61-1.35-.9-2.67-.61-2.67.04 0 .44.38.89.84.84.89 1.38 1.7 1.56 2.38.08.28.18.4.34.43.25.03.45.49.63 1.42.1.5.34.9.48.77.03-.04.1-.3.12-.56.03-.27.1-.51.16-.54.23-.15 1.89 1.35 2.44 2.22.3.44.33.57.27.97-.04.24-.04 1.32 0 2.39.05 1.53.1 1.95.21 1.95s.15-.15.16-.46c.01-.89.38-3.64.48-3.67a9.23 9.23 0 012 1.6c.37.44.71 1.09.71 1.39 0 .12.06.3.11.4.08.12.15.1.42-.16l.32-.3.33.35c.17.19.35.46.38.62l.21.82c.08.28.17.8.2 1.13.08.7.3 1.1.49.84.05-.09.1-.27.1-.4 0-.18.07-.24.26-.24.14 0 .32-.1.4-.24.16-.23.18-.2.39.5l.4 1.45c.1.39.2.83.26 1 .05.18.22.85.37 1.5.16.64.36 1.28.44 1.42.27.4.4.17.32-.6-.03-.4-.12-2.04-.18-3.67l-.12-2.95.39-.8c.21-.45.43-.81.48-.81a7.22 7.22 0 012.58 4.27l.16.61c.04.15.42.17.52.02.03-.06-.01-.5-.1-.97-.23-1.06-.2-1.29.36-3.61.38-1.57.44-1.99.4-2.62-.08-1.15-.14-1.12 1.8-1.12h1.66l.57.44c.34.26.8.75 1.07 1.16.26.39.73.94 1.04 1.22l.84.76c.28.24.73 1.33.73 1.74 0 .11.05.34.11.49.21.56.68 4.8.84 7.63.07 1.1.14 2.34.18 2.79.05 1.03.19 1.4.49 1.35.18-.02.26-.16.37-.6.2-.76.2-.99.05-2.1l-.27-2.18-.28-1.97c-.05-.42-.13-1.23-.16-1.82a3.84 3.84 0 01.15-1.7c.11-.37.26-.64.35-.64.16 0 .4.67.4 1.17.02.17.11.6.22.96.15.48.25.65.41.67.18.03.25-.05.36-.43.07-.25.12-.6.12-.78l-.07-2.6-.08-2.3-.4-1a4.5 4.5 0 00-.89-1.56c-.27-.3-.52-.66-.56-.81-.09-.35.13-2.11.27-2.3.14-.16 1.23-.2 1.47-.06.06.05.36.54.65 1.1.55 1.08.83 1.29.78.6-.03-.24-.11-.58-.2-.78-.2-.48-.19-.8.08-1.57.29-.85.23-1.78-.13-2.17-.21-.22-.3-.24-.75-.19-.28.05-.52.02-.56-.04-.03-.05.13-.54.37-1.08.33-.75.42-1.04.36-1.32-.05-.25-.02-.4.09-.48.17-.14 2.6-.36 2.94-.27.23.06.28.2.37.89.14 1.12.64 4 .82 4.69.23.9.72 2.44 1.06 3.3.24.6.37.95.5 1.34l.72 1.5c.75 1.48.85 1.74 1.14 2.8.2.72.21 1.07.18 3.58-.02 2.16 0 2.84.11 3.03.32.56.4.21.46-2.01.06-2.27.16-3.3.3-3.3.21 0 .33.34.4 1.16.04.61.1.9.22.94.25.1.36-.12.45-1 .13-1.14.3-1.62.7-2.07.52-.59.9-1.28.97-1.81.05-.4.01-.54-.3-1-1.8-2.7-2.66-4.65-3.77-8.63a18.41 18.41 0 01-.67-3.44c.03-.02.13-.02.23.02.11.04.19.26.24.7.07.61.28.96.47.77.05-.05.14-.4.18-.78.05-.46.15-.71.27-.8.1-.05.21-.07.25-.04.05.04.12.54.18 1.12s.14 1.09.2 1.15c.2.2.34-.17.41-1.03.09-1.05.23-1.37.6-1.37.14 0 .26-.04.26-.1 0-.16.59-.43.93-.43h.3l.12 1.5c.09 1.12.16 1.56.3 1.68.26.27.4 0 .46-.88.06-.97.2-1.16.68-.88.43.24.94.22 1.53-.06.3-.14.51-.19.57-.12.06.05-.1.48-.38 1.05a9.33 9.33 0 00-.95 2.5c-.28 1.2-.28 1.2-.78 1.36-.66.23-1.04.54-1.3 1.06-.29.6-.23 1.1.12 1.3.15.07.62.13 1.04.13.7 0 .78.02.87.24l.27.72c.18.47.45 1.05 1 2.07.34.65.26.79-.58 1.02-.83.23-1.75.68-2.03.98-.45.48-.48.66-.3 1.55.15.88.45 2.96.5 3.5.02.24.1.33.25.35.26.03.28-.08.43-1.86.04-.5.1-.89.15-.89s.2.1.35.21c.23.18.28.2.33.05.03-.1.06-.26.06-.38 0-.35.4-1.02.77-1.3.43-.32 1.35-.6 1.94-.6.34 0 .61.1 1.19.49.41.27 1.01.61 1.33.75.52.24.63.26.96.14a3.89 3.89 0 001.5-1.21c.16-.26.2-.44.15-.83l-.07-.5.68-.06 1.4-.18c.4-.07 1.14-.13 1.65-.14l.93-.01.17.53c.1.29.25 1.27.34 2.17.2 2.14.31 2.25.73.66.12-.5.3-1.05.38-1.22.13-.25.18-.28.3-.16.28.29.7 1.96.7 2.75 0 .5.06.89.16 1.1.18.34.17.97-.03 3.21-.06.73-.06.74.2.7.25-.04.25-.06.31-1.53.04-.82.13-1.66.2-1.87.18-.5.16-2.66-.06-5.49-.18-2.55-.25-2.87-.98-4-.2-.32-.63-.9-.95-1.31-.56-.7-.58-.72-1.07-.72-.67.02-1.32.31-1.68.8-.33.43-.37.83-.12 1.33.23.41.22.73 0 .79l-.9.17a96.2 96.2 0 00-3.52.6c-.4.09-.98.15-1.3.15h-.6l-.59-.72c-.65-.81-1.08-1.56-.97-1.73.03-.05.22-.1.4-.1.44 0 1.87-.45 2.4-.75.77-.44 1.1-1.3.7-1.8-.2-.25-.22-.26-1.23-.13-.56.06-1.51.11-2.1.11h-1.08v-.88c.01-1.02.28-2.18.72-2.99l.3-.55.64-.04c.34-.02 1.1.05 1.68.13.58.1 1.3.17 1.6.18.66.01 2.69.33 2.8.45.05.04-.08.26-.3.48-.53.57-1.3 1.6-1.56 2.13-.71 1.4-.63 2.8.17 2.8.5 0 1.19-.24 1.52-.51.28-.25.38-.46.6-1.35.44-1.76 1.05-2.72 1.9-2.96.39-.12.43-.11.61.11.12.14.2.35.2.45 0 .35.64 1.6.83 1.6.14 0 .16-.15.1-1.12-.05-.87-.03-1.15.1-1.3.15-.2.15-.2.3 0 .1.1.19.42.23.7.09.62.21.78.48.63.17-.08.2-.22.2-.82 0-.4.05-.76.09-.83.14-.21.51-.27.65-.1.24.27.44 1.25.5 2.43.05.8.12 1.15.2 1.15.2 0 .28-.35.38-1.97a11.49 11.49 0 01.47-2.86c.04-.25.12-.4.22-.4s.16-.1.16-.32c0-.18-.05-.32-.13-.32-.06 0-.21-.08-.32-.18-.18-.16-.55-.18-4-.15-3.02.02-4.1 0-5.15-.14l-1.78-.23c-.51-.07-.64-.27-.46-.74.1-.29.03-.5-.27-.71-.25-.2-.8-.07-1.48.35-.65.4-.78.43-1.2.36-.8-.11-.9-.41-.56-1.79a.96.96 0 00-.08-.8c-.2-.38-.2-.4-.78-.38-.32 0-.86.05-1.19.1-.41.05-.62.04-.67-.05-.13-.2-.6-.14-1.45.2a9.5 9.5 0 01-2.67.47c-1.02.1-2.17.17-2.56.15-.67-.03-.7-.04-.99-.5-.42-.61-.82-.62-1.4 0-.72.72-.94.8-2.3.87-2.49.12-4.14.59-5.44 1.56-.84.63-1.27 1.33-1.28 2.11 0 .43.05.6.38 1.37.93 2.17.98 2.5.37 2.62-.2.04-.64.18-.96.31-1.12.45-1.16.44-1.61-.53l-.32-.67c-.06-.1-.41-.96-.8-1.92a18.5 18.5 0 01-1.18-3.97 5.72 5.72 0 00-.66-2c-.12-.14-.32-.19-.66-.19-.44 0-.6.08-1.13.46-.35.26-.7.54-.78.64-.12.15-.71 2.22-1.07 3.7-.05.2-.19.76-.33 1.23-.46 1.64-.75 2.78-.97 3.68-.12.5-.25.97-.3 1.05-.07.12-.51.15-2.31.13h-2.23l-.26-.34a37.33 37.33 0 01-2.53-4.1c-.25-.53-.32-.8-.36-1.7l-.05-1.07-.45-.03c-1.43-.1-2.39 1.58-2.17 3.76.06.47.1.97.1 1.1.01.18.1.29.32.38.32.11 1.24 1.34 1.17 1.55-.06.2-1.72-1.35-2.45-2.28a46.8 46.8 0 00-2.95-3.1c-2.18-2.12-3.27-3.33-3.67-4.09-.1-.18-.32-.38-.48-.45-.16-.05-.48-.2-.7-.32-.78-.4-1.63-.17-2.3.6-.3.34-.34.45-.34 1.1 0 .78-.09 1.2-.23 1.2-.05 0-.32-.17-.6-.37a8.56 8.56 0 00-3.67-1.56c-.43-.06-.89-.15-1.02-.17s-.26-.15-.3-.29c-.15-.5-.47-.71-1.11-.71-.34 0-.87.07-1.19.17-1.08.32-2.73 1.58-3.76 2.86C15.1 4.9 14.6 6.5 14.6 8.92c0 .83-.04 1.42-.1 1.42-.06 0-.3-.35-.56-.78a24.53 24.53 0 00-6.34-7.04C7 2.05 6.95 2 6.91 1.5 6.85.89 6.6.42 6.31.42a2 2 0 00-.69.32l-.51.32-.57-.32c-.3-.18-.66-.32-.8-.32-.12 0-.42.2-.7.47zm26.07 2.64c.1.26.05.47-.13.7-.08.11-.15.1-.3-.04-.22-.2-.25-.4-.1-.7.16-.27.42-.25.53.04zm-9.95 1.6c.48.43.9 1.35.9 2 0 .57.11.79.38.73.15-.02.25-.25.43-.99.24-.9.39-1.16.61-1.09.1.03.27.73.64 2.58l.23 1.14c.04.3.11.4.25.4.18 0 .21-.12.28-.98.14-2.02.4-2.73.92-2.6.5.13 2.27 1.37 3.02 2.14a5.93 5.93 0 011.6 2.78c.38 1.56.05 2.44-1.11 3.04-.61.31-2.04.5-2.76.34l-1.14-.19c-.5-.07-.91-.22-1.38-.5a11.5 11.5 0 01-3.2-2.73c-.43-.59-.92-1.57-1.18-2.35s-.25-2.65 0-3.3c.34-.83.87-.98 1.5-.42zM6.29 7.04c0 .15.08.5.16.79s.16.68.16.87c0 .44.1.69.27.69.13 0 .27-.54.27-1.1 0-.39.18-.29.25.14l.13.64c.07.35.3.42.4.14.13-.34.28.07.28.76 0 .8.11 1 .36.72.12-.14.18-.45.2-1.25.02-.85.06-1.07.19-1.09.2-.02 1.86 1.8 2.7 3s1.66 2.78 2.09 4.13c.23.76.23.76-.86.68-.55-.04-1.21-.12-1.48-.18-.26-.05-.87-.14-1.34-.2-.48-.04-1.06-.13-1.3-.2-.39-.1-.42-.14-.84-1.15a51.7 51.7 0 01-1.48-4.3c-.41-1.4-.6-4.06-.25-3.5.05.08.1.26.1.41zm48.64 2.74c.2.6.32 1.16.3 1.25s-.25.2-.48.22c-.22.05-.53.11-.7.16-.44.14-.53-.06-.33-.8l.25-.96c.14-.58.43-1.16.53-1.05.05.05.24.58.43 1.18zm6.38 3c.02.45 0 .84-.06.9-.1.09-1.3-.98-1.3-1.18 0-.18.75-.55 1.06-.52.26.02.27.05.3.8zm-12.75 2.68c0 .37-.06.72-.11.78-.09.08-.66-1.02-.66-1.28 0-.15.21-.23.53-.2.26.01.27.04.24.7z"/>
  <path stroke="green" stroke-width=".4" d="M34.44 26.64c-.15.38-.02.9.2.86.22-.04.28-.31.19-.79-.08-.44-.24-.47-.39-.07zM23.28 27c-.19.24-.38.9-.31 1.09.19.49.6-.1.6-.86 0-.37-.1-.46-.3-.23z"/>
</svg>
