<svg xmlns="http://www.w3.org/2000/svg" viewBox="0 0 130 32">
  <path d="M66.5 4.3a18.8 18.8 0 00-4.6 5l-.6-.5-1.6-.8c-1-.3-1.1-.3-1.5-1s-.6-1-1.7-1.4c-2.1-1-2.4-1-3.2-.5-2 1-6 4.2-6 4.6 0 .3 0 .4 1.1 2.4.4.8 1 1.6 1.1 2 .3.4.3.8.4 2 0 1.4.1 1.6.5 2.4l.5 1c0 .2-.4.2-1.8.2h-2l-.5-.8a7.6 7.6 0 00-2.8-2.2c-.1 0-.4.5-.6 1.1l-.6 1.2c-.1.1-.7.2-1.3.1H40v-1.5c.1-1.7.4-2.9.7-3L42 14l1.2-.7c.2-.2.2-.7.2-1.5 0-1.2 0-1.3-.5-2l-.6-1.1c-.4-.8-.3-.8-4.2-.8L34 8l-.9 2c-.4 1-.8 1.8-1 1.8 0 0-.4-.3-.7-.8C30.4 9 29 8 27.3 8c-1.1 0-2.4.4-3.1.9l-.8.3-.4-.5c-.2-.4-.5-.6-.6-.6l-2 1a32.4 32.4 0 01-3.2 1.7 4 4 0 01-1.1-.8c-1.8-1.7-3.5-2.2-5.4-1.8-3.3.9-6.1 5.2-6 9.4 0 3 1.8 6.7 4 8.1 1.6 1 5 .6 7-1s3.1-3.9 3.4-7.4l.1-.8h.7c.8.1.7 0 1 1.8.2 1 .2 1-.2 1.4-.1.2-.3.3-.4.3l-.6.4c-.4.4-.4.4-.4 2.3v2l.7 1.1c.8 1.3.8 1.3 2.3.7 2-.8 2.6-.8 6.8-.8H33l.4.5.4.5 3.1-.2 6-.1 3.3-.2c.3 0 .4-.5.9-2.5 0-.4 0-.4.3-.1.2.1.6.7 1 1.4l1 1.5.4.5H52c2.3 0 2.9 0 5.6.8.7.3 1.4.4 1.5.4l.3-.8.3-1.4.3-1c0-.1.1-.8.4-1.5l.6-2 .5-1.7a30.5 30.5 0 001.3-4.6c.1-.2.2-.2.9 0 1.4.3 1.3.1 1.3 2.1v1.8h-1c-.8 0-.9.1-1 .5-.2.2-.3.9-.4 1.4l-.3 1.6c0 .6 0 .8.7 1.8l.5.9.2.4h8.8l.4-.6c.4-.6.5-.7.5-1.8s0-1.2-.7-2.3c-.9-1.6-1.1-1.8-1.7-1.8-.5 0-.6-.1-.5-.7 0-.7.8-.9 1.3-.2l.3.6.5.6.5.6h1.3l1.4-.3c.3-.3.2-2-.1-3.3a4 4 0 01-.2-1.3h1c.8 0 1 0 1.3-.3l.3-.6c0-.6.3-.5.7.2l.3.8-.6.7A5 5 0 0077 22c.5 1 1.9 3.2 2.3 3.6.6.6 1.3.8 2.6.8a5 5 0 003.1-.9c.7-.4 1.1-.4 1.3 0 .3 1.2 5 1.8 6.2 1 .5-.5.6-.5.8 0 0 .3.2.4.6.3l1.2-.4c2-.8 2.6-.8 6.8-.8 3.6 0 4 0 4.2-.3.4-.3 1.4-.5 2.9-.7h1l.5.8c1.7 2.3 2.4 2.6 4.9 2a10 10 0 005.4-3.4c.5-.8.6-.9.6-1.8 0-1.2-.6-2.8-1.4-4.1l-.9-1.5c-.4-.9-.5-1.1-.4-1.4l1.6-2.5 1.4-2.2-.4-.5c-.6-.9-2.2-2.6-2.9-3-.4-.4-.7-.5-1.2-.5s-.6 0-1.2.8a14 14 0 00-1 1.7l-.7 1c0 .1-.4-.1-.8-.5-2.5-2-5-1.5-6.4 1.6-.5 1-.5 1-.5 2.8v1.8l.6 1.2c.5 1 .6 1.2.3 1.3l-.9.1c-.4 0-.7.2-1 .3-.4.4-.6.4-.5 0l.4-2a8 8 0 000-2.8c-.3-2.1-2-4.6-3.7-5.4a5.6 5.6 0 00-4.8.3l-.8.5-.3-.4c-.8-1.1-.6-1-1.8-.4-.6.4-1.4.9-1.8 1l-1.7 1-1 .7.1.6c.1 1 1.3 3.2 2 4 .6.6.8.8 1.2.8.6 0 .7.1.7 1.7l.1 1.3-.7.4-.8.8c-.2.4-.4.3-.8-.2-.3-.3-.6-.6-.9-.6-.3 0-.6-.2-.8-.3-.3-.2-.3-.3-.3-2.8 0-2.8-.1-3.4-1-5-.4-1.2-1.7-2.9-2.3-3.4-1-.8-1.7-1-3.2-1-1 0-1.3 0-2.1.4-.5.2-1.3.7-1.8 1.2-1 .9-1 1-1.3 0-.1-.5-.8-2-1.6-3.3l-.7-1.3c-.2-.4-.8-.4-1.5.2-.8.6-1.3 1.4-1.3 2.1 0 .8-.2 1.1-.6 1.1-.8 0-1.1-.2-2-1.3l-1.4-1.9c-.8-.8-1.2-.8-2-.4zm1.7 1.3l-.9 1c-1 1.2-1 1.5-.2 1.5 1 0 3 .4 5.4 1l1 .3.4-.3c.2-.4.2-.5 0-1.6-.2-1.2-.2-1.2 0-1.6.5-.6.8-.5 1.2.2.6 1.4 1 3.8.6 5.2-.2.8-.3.9-1 .5a16 16 0 00-4.4-1.3c-1-.2-1.1 0-1.5 1.3-.4 1.3-.4 1.3 2 1.3s2.4 0 2.6 1.8c.2 1.5.2 1.7-.7 1.7-.8 0-1-.4-1-1.3 0-.6 0-.6-.6-.7a7 7 0 00-1.7-.2h-1.1l-.2 1c-.2 1.2-.3 3.5 0 4 .2.7.7 1 1.6 1h1c.3.1.3 1 0 1.5-.2.3-.3.3-3.7.3a19 19 0 01-3.5-.1c-.1-.2 0-1.2.2-1.5l1.3-.3h1V18c0-2.3 0-3.1.8-6 .3-.9.4-1.7.4-2 0-.4 0-.4-.9-.4-1 0-1.5.2-2.1 1.3-.5 1-1 1-1.4.2-.3-.5-.3-.5 0-1 .8-1.6 3.2-4.4 4.2-5 .3-.1.4-.1.8 0l.4.4zm-13 .5l1 .6a117.6 117.6 0 00-2.3 5.6c-.8 2-.9 3 0 3.6.4.4.7.3 1.4-.4.7-.8 2.2-3.8 3.1-6.5.2-.4 1.5-.3 2 .1.2.3.2.4.1 1.5-.2 2-.7 4.3-1.6 7.1a146.3 146.3 0 00-2 6.7c-.2.1-1 0-3.1-.7-.5-.1-1.4-.2-3.1-.2-1.9 0-2.6 0-2.7-.2-.4-.7-.6-2-.2-2.5a37.1 37.1 0 015.5.4l2 .5c.2 0 .4 0 .5-.2.2-.2.9-2.1 1.4-3.8 0-.5.3-1.2.4-1.6l.8-3.2c.3-1.1.3-1.7 0-1.7l-.6 1.6c-.9 2.5-1 2.7-1.7 4-.7 1.4-1.3 2.1-2 2.5-.7.4-1 .4-1.6.1-1.4-.7-2-2.9-1.4-5A25 25 0 0153 10l.8-1.8c0-.6-1.4.4-3.2 2.2l-1.2 1.3-.3-.4-.5-1-.2-.5.6-.5c1.7-1.5 4.6-3.4 5.1-3.4l1.2.3zM118.2 8c.6.4.7.6.2 1.2a48.4 48.4 0 00-3 5c-.2 0-.7-.2-1.2-.6-2.2-1.4-3.7-2-4.5-1.6-.5.3-.8 1-.8 1.8 0 .6.1.8.4 1.1.8.9 2.1 1 5.4.3 2-.4 3.8 1.3 4.3 4.1.2 1 .2 1-.2 1.7a9.6 9.6 0 01-5.8 3.4c-.8.1-1.8-.2-2.3-.8-.3-.2-.5-.5-.5-.6 0-.4-.4-1.7-.6-1.8l-1.8.1c-.9.1-1.7.2-1.8.1-.2-.1 0-1.2.3-1.6.2-.2.4-.2 1.8-.2h1.8l.6 1c.2.5.6 1 .9 1.3.4.4.5.4 1.6.4 1.6 0 2.5-.5 3-1.6.4-.7.4-2.5 0-3-.3-.6-1-1-1.5-1-.6 0-2.1.4-3.5.9l-1.4.4c-1.4 0-2.5-3.3-1.7-5.6.4-1.5 1.2-2.4 2.2-2.8 1-.4 2 0 3.7 1.6.4.4.8.7 1 .7l.9-1.7c.8-1.7 1.4-2.5 1.7-2.5l.8.3zm-33.7.7c1 .4 1.7 1.1 2 2.2a125.7 125.7 0 01.7 8.8c.1 1 .1 1 .5 1.2l1.3.1c1.3 0 1.6.1 1.7.5.1.5 0 1.3-.4 1.7-.2.3-.3.3-1.7.3l-2-.2-.6-.2v-1.9-1.9c-.2 0-.5.4-.9 1-1.3 2-2.6 2.8-4.6 2.8-1 0-1.3 0-1.8-.3-.9-.5-1-1-1-2.7 0-1.6.3-2.2 1.2-3 .8-.8 1.6-1.2 2.5-1.5.9-.3 1.4-.2 2.5.3l1 .3c.3 0 .7-1.2.7-2.3 0-1.9-1-3.1-2.5-3.6-.6-.1-.7-.1-1 .1-.5.3-.8 1-.8 1.7 0 .9-.3 1.2-.9 1.4-.8.3-1.2.2-1.4-.4-.3-1-.2-1.8.2-2.5a4.7 4.7 0 015.3-1.9zm-43.5.6c.2.6 0 1.6-.5 1.7l-1 .2-1.1.3c-.6.4-1 8.2-.4 8.8.2.2.5.2 1.9.2 2-.1 3.6-.3 3.7-.6.4-1.5.7-1.8 1.3-1.2.2.2.2.4 0 1.1a20 20 0 01-.6 2.9l-9.4.4h-1.3v-.8c-.1-1.4 0-1.4 1-1.4 1.6 0 1.6.3 1.5-5.1V11H35l-1-.2c-.1-.1.3-1 .7-1.5.3-.3.4-.4 3.1-.4 2.5 0 2.9 0 3 .3zm-26.6.4c1.6.8 2.4 2.4 2.3 5 0 4.2-2.4 7.5-5.8 8-1.2.2-2.5.1-3.1-.3-2.4-1.4-2.7-6-.7-9.7.9-1.6 2.7-3.1 4-3.4.8-.2 2.6 0 3.3.4zm14.6-.2c.8.4 1.2 1 1.4 2.1.3 2-.3 4.8-1.5 7.5-.6 1.5-.6 1.5.8 1 .8-.3.8-.3 1.1 0 .2.2.3.4.3 1.1 0 .5 0 1-.2 1-.2.2-4.4.2-4.6 0l.1-.8.4-1 .4-1.1c.6-1.5 1.3-3.8 1.5-4.9.2-1.3 0-2-.5-2.5-.4-.4-.5-.4-1.3-.4-1 0-1.7.3-2.6 1.2l-.6.7v1.9a50.6 50.6 0 00.4 6.3c-.2.2-3 1.1-3.4 1.1-.3 0-.3 0-.2-.7 0-.6 0-.7.8-1.2l.9-.7c.1-.3-.4-4-1-5.7-.5-2-.6-2.1-1.7-1.7-.7.3-1 .3-1.3-.1-.3-.4-.1-.9.4-1.1l.5-.3a16 16 0 012.7-1.4c.3 0 .4.2.6 1.1.2 1 .5 1.1 1 .3.3-.5 1-1.1 1.8-1.6.9-.5 3-.6 3.8-.1zm72.4-.2c1 .2 2 1.7 2 3.3a19 19 0 01-1.8 6.6c-.5 1.3-.5 1.4.8 1 1.1-.5 1.2-.4 1.3.2.2.5.2 1.7 0 1.9H99c-.2-.1-.1-.3.2-1l2-5.9c.7-2.7.2-4-1.6-4-1.2 0-2 .5-3 1.7-.3.4-.3.7-.3 1.5 0 .6 0 2 .2 3l.2 3v1.2l-1 .2-1.4.5c-.8.3-1.1.2-1.2-.3 0-.7.1-1 .8-1.4 1-.5 1.1-.6.9-2.3-.6-4-1.4-6.3-2-6-1.4.5-1.6.6-1.9.3-.5-.6-.3-1 1-1.7a49 49 0 002.6-1.3c.3 0 .3.1.6 1.4l.4.6s.4-.3.6-.7c.7-.9 1.7-1.6 2.6-1.8h2.6zm-68 4.6l.5.7.7.2h.6v2.4c0 1.9-.1 2.3-.3 2.5-.3.2-2.5.2-2.6 0l.2-1.4c.3-1 .3-1.7.4-3.2v-1.9s.4.3.6.7zm51 .3c0 .1-.2.3-.4.3-.4 0-.7-.2-.5-.5.1-.3.9-.2.9.2zM27 15.9c0 .4-.5 1.9-.6 2-.3.3-.5-.1-.5-.9 0-.5.1-.8.4-1 .5-.5.7-.5.7-.1zm72.7 0l-.3 1.3c-.3 1.1-.5 1.1-.6 0 0-.7 0-.8.3-1.2.4-.4.6-.4.6 0zm14.9 4.7c0 .2-.8.6-1.3.6-.6 0-.5-.2 0-.5.6-.2 1.3-.3 1.3 0z"/>
  <path d="M80.6 17.8c-.9.4-1.2.8-1.2 1.6 0 1.2 1.2 1.6 2.3.8.6-.5 1.6-1.7 1.6-2 0-.8-1.4-1-2.7-.4zm-69.4-7c-.6.2-1 .5-1.8 1.3C6.5 15 6 18.8 8.2 20.2c.6.4 1.8.6 2.5.4 1.3-.3 3-2.2 3.6-4 .3-.9.3-3 0-4-.6-1.7-1.7-2.3-3.1-1.8zm2.4 3.7c.4.6-.6 3-1.9 4.3-.6.7-.8.8-1.3.8-.7 0-1-.3-.8-1a7 7 0 012.6-4c.6-.4 1-.4 1.4-.1z"/>
</svg>
