<svg xmlns="http://www.w3.org/2000/svg" viewBox="0 0 120 32">
  <path d="m 14.5 0.97 a 238.24 238.24 0 0 0 -12.08 1.49 l -0.83 0.26 l 0.28 5.81 c 0.06 1.16 0.12 1.57 0.28 1.74 l 0.97 1.22 v 3.7 l -0.75 0.33 l 0.27 6.83 c 0.15 4.54 0.17 4.58 0.78 4.92 l 2.33 1.27 c 2.41 1.31 2.57 1.37 2.95 1.2 l 3.52 -1.1 c 0.2 -0.2 0.2 -0.51 -0.1 -2.33 l -0.5 -3.32 c 0 -0.27 0.11 -0.32 2.02 -0.9 c 0.85 -0.25 1.52 -0.53 1.58 -0.64 l 2.29 -7.61 c 1.16 -3.65 1.15 -3.58 0.9 -4.77 l -1.1 -5.17 c -0.1 -0.46 -0.18 -0.88 -0.18 -0.93 c 0 -0.17 -1.7 -2.13 -1.83 -2.12 l -0.8 0.12 z m 1.43 1.15 c 0.78 0.98 0.8 0.62 -0.29 4.23 l -2.85 9.63 c -0.28 0.94 -0.53 1.26 -1.04 1.28 l -3.86 1.18 l 0.8 6 c 0.15 1.01 0.15 1.28 0.03 1.39 c -0.16 0.15 -3.97 1.25 -4.32 1.25 c -0.12 0 -0.43 -0.1 -0.69 -0.24 c -0.44 -0.22 -0.47 -0.28 -0.47 -0.75 l -0.36 -9.66 c 0 -0.61 0.03 -0.7 0.28 -0.83 c 0.28 -0.12 0.3 -0.17 0.36 -2.02 l 0.14 -3.7 l -1.2 -0.11 l -0.46 -6.77 l 12.6 -1.65 s 0.2 -0.04 0.37 -0.04 l 0.96 0.8 z"/>
  <path d="M9.4 6.26l-2.87.4.97 6.28 3.25-.76.67-6.07zm88.04-5.13l-1.6.92c-.27.24-.53.1-.79-.44-.19-.41-.3-.53-.46-.48l-9.35 1.82c-.14.02-.31.18-.37.32l-.24 5.07-.46 1.17c-.51 1.3-.43 1.3-.98.06l-.36-1.01-1.93-4c-.4-.52-.77-.96-.83-.96l-12.5-2.1s-.88-.14-.97-.1l-1.66 1.72-1.02-.8c-.89-.78-.89-.8-1.45-.72l-7.7.99c-.92.1-1.03.17-1.12.7-.1.49-.2.51-1.29.3l-2.02-.3-14.98-1.95-.52 8.37 5.5 5.79 2.04-.11c.35-.04.65-.02.69.04.1.15.56 4.02.56 4.65 0 .34-.15.73-.55 1.43a18.1 18.1 0 00-1.34 2.5c.22.21 3.4 2.53 3.8 2.8l4.6 2.48c.78.4 1.36.64 1.48.59.11-.04.58-.36 1.03-.7l.85-.64 3.01 1.57 4.38-.2.48-.79.36-2.07.08-1.45.93.8c.98 1.04 1.06 1.08 2.1 1.27l1.32.26c2.53.5 3.24.6 3.42.51.13-.08.5.04 1.27.4l2.15.79c1.21.29 1.1.31 2.5-.58l4.98-2.89.55 1.95 3.17.84c3.3.87 3.2.86 4.2.41l8.68-3.39.01.71c.03 1.18.08 1.25.95 1.49l5.89 1.91c.26 0 4.67-2.22 4.8-2.42.05-.08.1-.27.1-.42 0-.28.02-.27 1.62.65l4.25 1.9.28-.94.43-5.08c.1-1.38.12-1.5.42-1.78.17-.15.3-.36.3-.44l.13-1.35c.37-4.13.37-3.87.1-4.38l-.1-2.84c.17-2.86.26-2.5-1.64-6.39l-2.6-5.1-7.13 2.68-.09 1.1.37 4.01c.12.6-.1.55-.4-.1L97.84.96s-.22.07-.39.17zm1.4 2.7l6.87 14c.66 1.35.93 1.7.79.96l-1.15-12.57c-.2-1.76-.23-1.69.63-2l5.78-2.16.37.76c.36.8.36.84.17 3.65l-.28 4.93.68-.12-.4 4.24c-.1 1.75-.18 1.84-.55 1.93l-.53 2.33-.45 6.05c-.08.86-.12 1.08-.3 1.11l-1.31-.49-1.37-.6c-.33-.12-.68-.5-1.06-1.22l-5.2-8.76 1.42 8.66-5.22 2.68-.2-1.4v-.52c2.07-.43 2.13-.52 2.23-1.9.06-.88.05-.94-.6-2.52l-1.6-3.79c-.59-1.41-.6-1.73-.07-4.37l.81-4.53-2.61-5.51 1.93-1.07zm-4.48-2.07L93 11l2.74 6.74c.64 1.5.67 1.65.52 2.53l-.14 1.18-.04.36-14.7 5.63-.23-1.8 2.09-1.26v-3.83l-.93-1.41c-1.02-1.53-.97-1.33-.5-2.42l1.52-2.73c1.01-1.4.97-1.29.73-2.46l.7-2.36.45-5.47 8.15-1.9c.71-.13.94-.15 1-.04zm-55.7.35l12.76 1.74c2.27.3 2.1.24 2.13.72l-1.6 4.06h-6.5l5.96 16.68-.32.41-1.27.9c-1.09.8-.85.83-2.94-.26l-4.57-2.58 1.83-3.26-1.4-11.8-7.42.51.43-7.47zm25.18.73c.55.52.73.77.7.94l-.74 7.12-2.84 1.06 3.11.76c.57.14.48-.06 1.18 2.98.38 1.69.43 2.23.7 8.43.03.52.02.56-.28.56l-4.8-1.18-.43-8.17L57.37 14l.1 11.1-.3.67c-.55 1.2-.39 1.11-2.04 1.12l-1.46.01-1.3-3.47.13-4.56c.38-4 .36-3.99 1.1-4.03l.63-.04 1.7-3.71-1.4-6.78-.24-.44a.74.74 0 01-.24-.47l1-.4 6.97-.94.9-.01.92.79zm4.47-.7l11.14 1.82.79.5.62.86-.45 1.26-2.78 3.57-1.73-.51-.16-.39s-.07-.4-.14-.47l-5.88-1.2.58 2.73 2.73.3.72 3.65-.36.37-2.74.38.86 4.85 8.24-3.44v3.68l-10.42 6.36-1.63-6.86-.97-2.98.65-5.85L65.5 4.3l-.09-.89.65-.75c.7-.85.59-.83 2.25-.52zm-15.94 12.9c.08.1.11.27.08.39l-.64 5.96-.18-.06-2.2-6.31c.1-.24 2.74-.23 2.95.02zm25.74.06l.92.54.31.4-.54.25-.9.12-.42-.7s-.42-.63-.42-.7l1.05.1zm3.27 1.52c0 .03-.06.17-.13.3-.14.26-.15.26-.3.04-.26-.35-.2-.52.13-.44.17.02.3.07.3.1zM66.82 22.6s.42 1.81.42 2l-.39.32-.4-.04-.06-1.56c-.09-1.63-.03-2.36.14-1.92z"/>
  <path d="m 88.9 14.25 l -2.22 6.54 l 4.89 -2.02 l -2.23 -5.39 z m -31.98 -9.18 l 0.38 6.03 l 2.47 -0.45 c 0.84 -0.15 0.8 -0.1 0.91 -1.42 l 0.34 -3.76 l -4.1 -0.4 z m -32.46 -3.37 l -9.71 24.58 c -0.58 1.35 -0.6 1.14 0.36 2.49 l 0.59 0.8 l 1.83 0.08 c 5.17 0.22 5.74 0.22 6 0.1 l 4.96 -2.08 c 0.36 -0.15 0.63 -0.52 0.63 -0.88 c 0 -0.27 0.2 -0.31 0.57 -0.17 l 0.57 0.24 l 6.17 1.85 c 1.78 0.3 1.9 0.28 2.35 -0.24 c 0.23 -0.24 0.4 -0.57 0.4 -0.7 l -0.47 -1.94 l -4.97 -17.27 a 82.94 82.94 0 0 0 -4.22 -5.4 c -0.58 -0.68 -0.39 -0.6 -3.17 -1.35 c -1.66 -0.44 -1.76 -0.44 -1.89 -0.1 z m 1.1 0.5 l 3.14 1.02 l 6.81 23.77 l -0.85 0.85 l -1.05 -0.37 c -4.97 -1.71 -4.57 -1.52 -4.67 -2.27 l -1.69 -9.07 l -2.03 -0.81 c -0.44 -0.2 -0.7 -0.07 -0.78 0.38 l -0.46 2.2 c -0.42 2.04 -0.44 2.32 -0.2 2.6 c 0.18 0.19 0.18 0.32 -0.06 1.33 l -1.02 4.32 l -6.77 2.74 l -0.63 -0.71 c -0.4 -0.64 -0.44 -0.76 -0.34 -1.12 l 9.62 -24.24 c 0.06 -0.06 0.1 -0.2 0.1 -0.3 c 0 -0.16 0.22 -0.48 0.33 -0.48 z"/>
  <path d="M26.1 8.94c-.06.05-.1.22-.1.39s-.04.49-.1.73-.18.75-.25 1.15l-.2.98c-.05.22.02.3.38.44.51.22.9.26.9.08 0-.39-.4-3.42-.47-3.62-.05-.12-.12-.2-.17-.15z"/>
</svg>
