<svg xmlns="http://www.w3.org/2000/svg" viewBox="0 0 123 32">
  <path d="M35.74.64c-1.23.08-2.87.2-3.66.3-.78.1-2.02.17-2.75.17-1.76 0-2.17.23-2.5 1.3a6.3 6.3 0 00-.24 1.14c0 .27-.16 1.02-.74 3.33-.12.5-.22 1.11-.22 1.35 0 .81-.24.92-.62.32-.17-.3-.33-.6-.33-.66 0-.16-1.34-1.88-1.7-2.16-.17-.13-.53-.42-.82-.6-.29-.21-.9-.75-1.35-1.2a9.14 9.14 0 00-5.05-2.34c-.57-.08-1.43-.2-1.9-.3C9.38.46 9.02.44 8.5 1.22c-.3.47-.33.8-.43 4.22-.06 2.04-.16 4.11-.2 4.59l-.1.89-1.07-.06c-.97-.07-1.1-.04-1.45.35-.3.3-.55.41-1.03.41-.56.02-.77.13-1.69 1-.57.54-1.37 1.25-1.78 1.55-.97.73-.97 1.05.08 2.66 1 1.5 1.4 2.23 1.4 2.5 0 .1.17.36.4.57.35.32.44.35.8.19.45-.2.7-.13.7.2 0 .12.25.58.53 1.03.6.95 1.15 1.08 1.7.38.18-.22.37-.37.44-.3s.1 1.06.12 2.24c0 1.48.07 2.2.2 2.33.1.1.2.43.2.7 0 1.08.53 1.67 1.47 1.67.59 0 1.08.43 1.08.95 0 .74.3.9 2.42 1.18 3.82.51 3.79.53 3.79-2.34 0-1.1.08-2.2.16-2.42.13-.35.1-.5-.18-.9-.31-.45-.33-.55-.16-1.57.1-.6.18-1.36.18-1.7s.06-.68.13-.78c.06-.11.8-.29 1.62-.4a8.22 8.22 0 002.63-.73 8.5 8.5 0 001.83-1.02l.7-.55.62-.47-.11.56c-.07.3-.16.84-.2 1.2s-.18.74-.3.87a5.1 5.1 0 00-.71 2.5c0 .9.22 1.16.95 1.16.47 0 .58.4.32 1.26-.43 1.54-.46 1.99-.2 2.53.33.7.87 1.05 1.46.94.56-.11.81.13.81.76 0 .77.65 1.26 2.07 1.58.65.16 1.64.38 2.2.5.87.22 1.03.22 1.46 0 .54-.28.96-.98.96-1.6 0-.24.11-.86.24-1.4s.33-1.56.48-2.26c.14-.7.36-1.75.5-2.32.13-.58.21-1.4.2-1.84l-.05-.78 1.35-.04c1.86-.07 1.85-.1 2.04 3.55.17 3.36.22 3.47 1.56 3.74.5.1 1.02.22 1.13.25s.19.34.19.77c0 1.32.45 1.4 4.62.84 2.11-.29 2.03.06 1.35-5.68a31 31 0 01-.26-2.79c0-.45-.1-1.05-.2-1.37-.15-.41-.16-.67-.05-.87.11-.18.1-.61-.03-1.26-.1-.54-.18-1.26-.18-1.58s-.1-.75-.22-.94c-.2-.33-.73-4.55-.73-5.89 0-.33-.11-.71-.24-.84-.26-.27-.35-2.61-.1-2.61.11 0 1.12 1.4 1.7 2.37l.55.81c.22.31.48.67.56.83.1.14.65.99 1.25 1.86 1.07 1.56 1.6 2.09 2.07 2.09.15 0 .35.19.47.43.2.4.19.54-.08 1.32a18.02 18.02 0 00-.91 3.82c-.05.57-.2 1.2-.3 1.38s-.2.5-.2.67c0 .18-.1.56-.22.85-.11.28-.33.95-.5 1.48-.14.52-.36 1.2-.49 1.48-.46 1.07-.1 1.81.96 2 .97.2 1.38.44 1.34.8-.05.46.44 1.15.95 1.34.24.08.86.27 1.39.41s1.29.38 1.68.51c1.18.35 1.82.3 2.14-.2.16-.24.33-.66.41-.91.06-.27.38-1.21.7-2.09s.64-1.81.72-2.07c.08-.27.4-1.2.71-2.07s.64-1.81.7-2.07c.07-.27.23-.67.35-.87.15-.28.2-.88.18-1.82-.02-.97.05-1.54.2-1.86.13-.24.24-.6.24-.77s.07-.35.16-.41c.2-.11 1.51 1.54 1.94 2.47l.51 1.1c.26.57.8.87 1.2.67.25-.15.36-.12.6.27.51.78.69 1.06.83 1.4.29.63 1.45.55 1.45-.1 0-.17.11-.32.24-.32.2 0 .24.35.24 2.14 0 1.68.05 2.16.24 2.32.16.13.24.48.24 1.02 0 .73.04.88.47 1.18.26.19.69.35.96.35.56 0 1.11.48 1.11.98.02.72.3.86 2.39 1.13 2.7.37 3.22.35 3.61-.1.3-.31.35-.56.39-2.81.04-2.02 0-2.53-.21-2.87s-.22-.65-.11-1.95a10 10 0 01.29-1.85c.1-.2.5-.33 1.56-.48 1.22-.17 1.7-.3 2.75-.71.13-.07.46-.24.72-.42.27-.17.62-.38.8-.46s.52-.33.76-.56c.82-.78.92-.5.43 1.2a4 4 0 01-.48 1.17c-.1.05-.16.3-.16.53-.02.24-.11.6-.24.83-.5.86-.05 1.9.81 1.9.45 0 .73.34.54.64-.1.13-.16.42-.16.63s-.1.74-.25 1.2c-.26.82-.26.83.14 1.47.45.69.86.92 1.37.76.38-.1.81.3.81.8 0 .75.66 1.26 2 1.56l2.27.5c.95.23 1.05.23 1.64-.07.41-.22.62-.43.62-.65 0-.18.1-.77.22-1.3l.48-2.19.48-2.39.41-2.05c.11-.62.11-.9-.01-1.07-.34-.4.03-.54 1.35-.54 1.67 0 1.85.16 1.85 1.6 0 1.5.43 5.09.63 5.33.2.22.86.43 1.6.47.22.04.44.05.49.07.06 0 .14.33.2.73.13 1.4.74 1.56 3.86 1.1l1.7-.26.62.74c.74.86.7.84 3.68.49l4.06-.48c1.12-.14 2.31-.25 2.66-.25s1.45-.13 2.44-.27c1.46-.23 1.84-.34 1.97-.6.27-.5.8-1.03.94-.93.08.05.14-.37.14-.91 0-.72-.06-1.03-.25-1.16-.2-.14-.27-.57-.34-1.63-.12-1.8-.31-2.11-1.35-2.13-.86 0-1.08-.24-1.4-1.38-.22-.91-.62-1.12-1.45-.78-.35.14-.8.25-1 .25s-.67.2-1.02.48c-.54.4-.83.48-1.54.48h-.88v-1.09c0-1.25.43-5.71.64-6.63.14-.64.06-.93-.48-1.79-.2-.3-.2-.38.14-.63.45-.35.64-1.3.64-3.08.01-.65.1-2.07.19-3.13.17-1.75.16-1.98-.08-2.34s-.37-.42-1.21-.42c-.9 0-1.32-.17-.96-.4.26-.15.18-.76-.15-1.16-.23-.27-.61-.41-1.55-.57-1.08-.2-3.28-.33-4.04-.27-.43.03-.64.78-.78 2.94-.1 1.15-.23 2.52-.32 3.04-.08.53-.16 1.3-.16 1.76 0 .43-.08.9-.16 1.03-.3.5-.65-.9-.78-3.25-.17-3-.43-3.44-2-3.6l-.8-.08-.05-.65c-.08-1.18-.32-1.26-3.2-1.2-1.37 0-3.5.13-4.74.26s-2.85.24-3.57.24c-1.46 0-2.37.38-2.37 1 0 .18-.1.74-.22 1.21-.13.5-.34 1.47-.48 2.17-.67 3.22-.92 3.98-1.13 3.33a7.63 7.63 0 00-2.72-3.59c-.3-.17-.93-.71-1.37-1.19a8.89 8.89 0 00-5.22-2.45c-1-.13-1.76-.26-3.78-.65-.5-.1-1.37-.23-1.92-.26-.9-.08-1.05-.05-1.4.29-.37.35-.39.43-.39 2.67 0 1.28-.1 3.08-.24 4s-.23 2.04-.23 2.48v.83l-1.04-.1c-.99-.08-1.08-.04-1.53.39-.36.35-.59.44-1.03.4-.5-.04-.69.07-1.83 1.16a6.8 6.8 0 01-1.52 1.2c-.28 0-.28-.47 0-1.14.37-.86 1-2.64 1.21-3.4.08-.26.4-1.18.72-2.06s.62-1.75.67-1.96c.1-.38-.32-.99-.69-.99-.1 0-.43-.12-.73-.27l-.75-.36c-.1-.05-.3-.34-.4-.64-.22-.7-.98-1.07-3.27-1.58-.3-.06-.72-.2-.91-.3-.2-.1-.62-.19-.97-.19-.73 0-1.04.35-1.39 1.6l-.47 1.63c-.15.45-.32 1.09-.39 1.39-.16.68-.5 1.43-.67 1.43-.06 0-.31-.33-.57-.73-.24-.41-.56-.9-.68-1.1s-.45-.68-.69-1.1c-.36-.59-.6-.78-1.24-1-.59-.2-.9-.45-1.23-.92-.65-1-.95-1.2-1.68-1.2-.56 0-.88.18-2.17 1.12-.83.62-1.6 1.16-1.69 1.2s-.41-.12-.7-.4c-.41-.37-.7-.49-1.33-.52l-.82-.04-.1-.69c-.17-1.3-.58-1.4-5-1.15zm3.58 1.38c.11.13.47 2.09.8 4.35.11.73.29 1.3.46 1.51.24.26.32.7.4 2.47.05 1.18.13 2.43.19 2.78.08.51.02.75-.29 1.2-.41.6-.92.83-.92.41 0-.14-.08-.25-.16-.25-.1 0-.24-.18-.32-.4s-.22-.4-.31-.4c-.08 0-.16-.11-.16-.24a.38.38 0 00-.24-.33c-.13-.07-.24-.2-.24-.32 0-.13-.11-.27-.24-.32-.13-.06-.24-.17-.24-.29 0-.1-.2-.4-.48-.7-.25-.28-.48-.58-.48-.66s-.1-.21-.23-.3c-.15-.06-.3-.4-.35-.76a2.12 2.12 0 00-.39-.93c-.17-.21-.33-.74-.41-1.52l-.13-1.19-.48.03c-1.95.11-3.05.29-3.3.5-.15.12-.31.49-.37.8-.05.33-.2.93-.3 1.38-.13.43-.34 1.25-.48 1.83s-.37 1.38-.51 1.8c-.16.5-.2.82-.1.92.08.08 1.42.13 3.17.11l3-.05v-1.41c0-1 .07-1.44.22-1.49.1-.04.19.05.19.18 0 .14.1.3.24.35.12.06.23.2.23.32s.12.27.24.32c.13.06.24.2.24.31 0 .13.11.27.24.32.13.07.24.2.24.32 0 .13.11.27.24.32.13.06.24.19.24.32s.08.22.16.22c.1 0 .24.17.31.4s.23.4.32.4c.08 0 .16.1.16.23 0 .15.11.3.24.34.13.06.24.19.24.32s.06.22.13.22c.08 0 .22.19.33.43.22.5.45.33.53-.35.03-.35.14-.5.41-.53.33-.04.35 0 .35.83 0 .81-.2 1.18-.37.69-.03-.1-.12-.15-.19-.08s-.06.24 0 .4c.13.3.11 1.2-.01 1.65-.04.14-.29.3-.56.37-.27.04-.45.16-.38.25.16.24.68.2.84-.1.1-.15.3-.22.6-.19.4.05.48.13.58.69.06.35.11 1.07.11 1.6.02.53.13 1.76.27 2.75.13.97.22 2.14.2 2.6l-.06.85-1.89.13c-1.05.06-2 .08-2.12.05-.12-.05-.2-.35-.2-.77 0-.38-.1-1.26-.23-1.96s-.27-2-.33-2.9c-.11-1.59-.11-1.6.25-1.67.2-.03.39-.14.43-.25.08-.27-.52-.24-.76.06a.81.81 0 01-.62.2c-.4-.05-.42-.1-.45-1l-.03-1.17c-.02-.16-.84-.2-3.87-.16l-3.84.05-.17.59c-.22.76-.64 1.24-1.07 1.24-.19 0-.67.11-1.08.24-.4.12-.92.27-1.16.32-.26.04-.45.15-.45.25 0 .13.4.14 1.24.08.67-.05 1.42-.1 1.64-.1.24 0 .69-.1 1.02-.25.78-.32.9-.14.62.94l-.46 2.1c-.15.7-.35 1.74-.48 2.3-.12.58-.27 1.3-.31 1.63-.05.32-.2.62-.32.67-.3.11-1.8-.16-3.57-.65-.16-.03-.19-.2-.1-.65.05-.32.17-1.06.23-1.63.08-.57.22-1.38.33-1.8.27-1.02.1-1.2-.78-.73-.84.43-1.1.27-.87-.6.12-.55.2-.6.83-.74.63-.12.93-.43.43-.43-.28 0-.3-.22-.1-1.14s.52-2.58.67-3.55c.06-.45.19-1.09.29-1.44.36-1.41.65-2.94.65-3.43 0-.3.1-1.06.22-1.66l.5-2.47.49-2.47a11 11 0 00.22-1.6c0-.5.26-.94.6-1.04.39-.13 11.07 0 11.18.13zm60.85.02a4 4 0 01.3 1.24c.1.6.27 1.67.4 2.37s.22 1.45.22 1.66c0 .2.11.46.24.56.34.25.88 5.73.6 6.1-.12.15-.26.44-.36.65-.12.28-.24.33-.57.25l-.41-.11.25.5c.14.26.35.55.46.61.13.07.3.28.4.45.17.32.17.32.2-.03 0-.2-.09-.37-.2-.4-.13-.05-.08-.25.17-.65.2-.34.43-.56.51-.5.26.15.18 1.91-.1 2.14-.15.12-.23.49-.23 1.05 0 .84 0 .86.48.86.46 0 .47.03.47.68 0 .38.1 1.44.23 2.36.12.9.27 2.48.33 3.5.11 2.12.16 2.06-1.32 2.06-.5.01-1.23.08-1.62.15-.96.2-1.21-.1-1.34-1.56-.06-.58-.2-1.76-.33-2.6s-.24-1.9-.24-2.35c0-.68.04-.8.35-.84.43-.07.59-.45.17-.45-.16 0-.43.11-.59.24-.17.13-.44.24-.59.24-.24 0-.3-.17-.33-1.16l-.05-1.15h-7.8l-.17.7c-.18.74-.56 1.13-1.07 1.13-.18 0-.64.12-1.05.24-.4.13-.93.27-1.16.32-.26.05-.45.16-.45.26 0 .12.4.16 1.32.08.72-.07 1.5-.12 1.74-.12s.63-.1.86-.22c.23-.13.49-.19.57-.14.19.13.16.76-.11 1.86-.13.54-.35 1.56-.5 2.26s-.38 1.82-.54 2.47l-.27 1.2-.86-.07c-.46-.03-1.11-.14-1.46-.27s-.8-.22-1-.22c-.21 0-.39-.1-.4-.21-.05-.67.06-1.8.27-2.53.22-.9.3-2.23.1-2.4-.04-.07-.25-.02-.42.1-.2.12-.53.26-.77.32-.5.12-.57-.12-.27-.97.15-.43.27-.5.91-.6.65-.1.7-.14.46-.32-.44-.32-.36-1.2.46-4.86.13-.57.23-1.19.23-1.36 0-.2.1-.6.24-.91.12-.32.23-.92.23-1.34s.1-1.27.23-1.88l.5-2.47c.14-.75.36-1.86.49-2.46.12-.62.22-1.25.22-1.39 0-.54.35-1.9.54-2.08.24-.23 11.2-.23 11.43.01zm10.83-.1c.24.2.24.51.1 2.92a34.53 34.53 0 01-.23 3.18c-.11.54-.48 1-.94 1.2-.18.09-.53.3-.8.47-.25.18-.62.38-.8.48l-.79.46c-.25.18-.6.32-.78.32-.29.02-.29-.08-.17-1.78.06-.97.17-3.01.22-4.5l.1-2.7 1.83-.1c1-.04 1.88-.1 1.92-.1s.2.06.34.15zm-98.66.37c.62.13 1.65.33 2.3.48.66.12 1.4.24 1.63.24.62 0 2.42.68 3.17 1.2a6.2 6.2 0 012.54 6.3c-.4 2.65-1.83 4.56-4.39 5.82a9.14 9.14 0 01-3.79 1.08c-.97.08-1.26.18-1.38.4-.1.16-.16 1.47-.16 2.88 0 2.22.03 2.63.27 2.89.24.27.25.46.1 1.92-.12.9-.24 1.75-.3 1.91-.12.32-.45.34-2.3.05l-1.35-.2.01-1.14V25h-.9l.1-2.03c.04-1.13.12-2.54.15-3.15.06-.84.03-1.2-.14-1.43-.2-.26-.24-.88-.26-3v-2.67l.46-.16c.56-.19.6-.44.75-3.53.08-1.47.18-2.23.3-2.28.1-.05.53.03.93.18.55.19.83.2 1.06.08.45-.24.4-.45-.1-.58A8.45 8.45 0 019.83 6c-.62-.27-.76-.42-.76-.73 0-.42.3-2.8.41-3.16.06-.22.95-.16 2.85.21zm60.81 0c.62.1 1.55.3 2.07.4.53.1 1.32.24 1.75.3a6.8 6.8 0 014.64 2.55A5.56 5.56 0 0182.9 9.2a7.13 7.13 0 01-3.03 6.28 9.55 9.55 0 01-5.2 1.95c-.66.07-1.25.2-1.3.3-.2.28-.17 5.8.02 5.91.15.1.1 2.34-.1 3.53-.06.45-.14.53-.49.53-.47 0-3.12-.35-3.21-.43a6.14 6.14 0 01-.03-1.18l.03-1.13-.45.07c-.4.04-.44-.02-.5-.43-.04-.28.02-1.72.14-3.24.15-2.08.17-2.78.03-2.93-.13-.12-.2-1.08-.2-3.02 0-2.66.02-2.83.3-2.83.17 0 .37-.1.45-.21.1-.1.21-1.34.28-2.74.1-3 .15-3.09 1.25-2.7.56.19.83.2 1.07.07.45-.23.4-.44-.11-.57a6.37 6.37 0 01-1.88-.84c-.16-.27.22-3.4.43-3.54.22-.16 1.05-.08 2.75.26zm-25.07.22c0 .11.57 1 2.51 3.93.1.16.28.47.35.67.12.27.24.35.47.27.24-.08.46.1.98.75.37.46.74 1 .83 1.2.1.2.26.36.35.36.26 0 .72-.7.72-1.08 0-.16.1-.43.24-.6.12-.17.24-.44.24-.58 0-.16.1-.5.22-.8l.48-1.2c1.4-3.7 1.24-3.41 1.68-3.32.5.1 1.8.5 2.63.8.57.2.64.29.62.76-.01.29-.1.78-.22 1.09l-.4 1.11a31.22 31.22 0 00-.71 2.15c-.08.25-.23.73-.34 1.03l-.38 1.12a31.16 31.16 0 00-.72 2.15c-.27.92-1.11 3.28-1.35 3.74-.14.29-.35.46-.52.43-.15-.02-.28.03-.28.12 0 .08.12.15.26.13s.43.14.64.37c.33.35.35.43.16.75a3 3 0 00-.35.82 32.58 32.58 0 01-.7 2.15 30.55 30.55 0 00-.72 2.15c-.08.26-.4 1.2-.72 2.07s-.63 1.83-.71 2.13c-.23.86-.5 1.04-1.21.82-.35-.11-.86-.3-1.15-.42a2.56 2.56 0 00-.8-.22c-.14 0-.57-.14-.95-.32-.59-.27-.67-.35-.52-.6.08-.16.43-1.15.78-2.2.35-1.04.7-2.07.8-2.3.45-1.17.53-1.6.33-1.84-.15-.18-.13-.29.08-.5.14-.17.25-.4.25-.49s.14-.25.32-.35c.25-.14.3-.27.22-.76-.05-.35.02-.86.16-1.3.37-1 .32-1.58-.22-2.63-.42-.82-.48-1.1-.48-2.27 0-.73-.06-1.32-.14-1.32-.2 0-.34.6-.34 1.45 0 .4-.05.78-.1.83-.17.18-.65-.25-1.2-1.08-.3-.45-.66-.94-.8-1.12S47.17 9 46.01 7.45c-1.73-2.34-2.05-2.87-1.87-3.04.1-.11.92-.67 1.78-1.26 1.27-.86 1.64-1.04 1.88-.9.16.07.28.21.28.28zm61.52 8.25c-.04.52-.02.5-2.84 3.5a4.66 4.66 0 01-1.22 1.07 5 5 0 01-.15-1.6c0-1.4.02-1.5.37-1.67a5.32 5.32 0 001.27-.76c.1-.1.3-.18.46-.18s.34-.1.39-.24c.06-.12.22-.23.38-.23s.36-.12.48-.24a.64.64 0 01.54-.21c.27.03.33.16.32.56zm-74.51.92c.13.65.03.88-.38.88-.4 0-.48-.32-.23-.93.27-.67.48-.65.6.05zm75.4.51c0 .33-.13.72-.27.9-.27.28-.27.3.01.5.21.16.26.34.2.67-.21.94-.4 8.57-.21 8.77.12.16.86.21 3.09.18 2.6-.02 2.96.01 3.23.25.17.16.32.39.32.48 0 .2.8 2.21 1.13 2.84.23.44.03.58-.88.58-.48 0-1.88.1-3.14.23s-3.28.27-4.49.31l-2.2.1-.14-.41c-.1-.23-.2-1.02-.25-1.79s-.2-2.1-.32-2.97c-.14-.88-.24-2.17-.24-2.87s-.08-1.73-.17-2.3c-.2-.96-.18-1.01.16-1.28.23-.2.31-.38.23-.6-.1-.25-.08-.26.18-.04.25.2.32.2.5-.05.1-.14.26-.27.38-.27.1 0 .17-.1.17-.24s-.08-.24-.16-.24c-.1 0-.2.11-.25.24-.07.13-.2.24-.32.24-.46 0-.42-.05 2.26-2.91.46-.5.92-.9 1.02-.9.08 0 .16.26.16.58zm-103.63 0c.13 1.2.13 2.07-.03 2.96-.16.9-.16 1.23.06 2.17.35 1.45.35 1.45-.3 1.45h-.56l.05-1.72c.03-.97.16-1.91.29-2.22.19-.43.17-.62-.07-1.45a3.04 3.04 0 01-.19-1.13c.13-.19.74-.23.75-.06zm60.8 1.18c0 .7-.08 1.42-.16 1.6-.19.32.02 1.8.42 2.9.25.75.19.9-.42.9-.65 0-.8-.37-.8-2.14 0-1.25.05-1.52.25-1.52.28 0 .33-1.34.08-2.22-.18-.62-.1-.81.33-.81.27 0 .3.11.3 1.29zm-62.95.59c.81.1.86.24.86 2.35 0 1.95 0 1.98-.35 1.98a2.1 2.1 0 01-.76-.24c-.54-.32-1.21-.3-1.34.03s-.25.2-.9-.99c-.28-.52-.6-1.06-.7-1.19-.45-.54-.39-.76.28-1.21a9.7 9.7 0 001.37-1.16l.7-.72.19.54c.14.45.29.58.65.6zm60.07-.67c.08.46.33.7.72.7.8 0 .92.27.92 2.23.01 2.12-.11 2.32-1.07 1.86-.65-.32-1.46-.35-1.54-.08-.1.27-.45 0-.45-.33 0-.16-.1-.39-.24-.5s-.24-.27-.24-.35c0-.1-.22-.5-.49-.89-.46-.68-.48-.75-.22-.9a6.5 6.5 0 001.9-1.65c.36-.54.61-.57.7-.1zm53.9 9.17c.04.2.1.9.15 1.56s.13 1.43.2 1.7c.09.46.05.53-.25.53-.22 0-.36-.13-.43-.45-.06-.24-.2-.57-.32-.75-.12-.17-.22-.4-.22-.5s-.2-.66-.46-1.2c-.27-.54-.45-1.03-.4-1.11.05-.07.43-.13.86-.13.69 0 .8.05.86.35z"/>
  <path d="M39.09 19.44c-.18.25.01.35.47.24.23-.07.37-.18.32-.26-.13-.2-.67-.2-.8.02zM95.65 6.13c-.05.05-.75.14-1.54.2l-1.47.12-.3.87c-.18.48-.3 1-.32 1.18 0 .16-.11.62-.24 1.04a16.64 16.64 0 00-.76 3.28l-.03.63 3.07.05c2.56.03 3.07 0 3.15-.19.05-.13-.03-.8-.16-1.47-.29-1.38-.16-1.8.37-1.16.17.21.32.47.33.58 0 .1.1.25.2.31.28.18 1.23 1.4 1.23 1.6 0 .08.21.31.45.52.24.22.5.53.56.67.05.16.17.29.27.29.3 0 .16-.4-.27-.81a3.73 3.73 0 01-1-1.39c-.09-.2-.23-.35-.32-.35-.08 0-.16-.06-.16-.14 0-.1-.2-.4-.48-.69-.26-.28-.48-.6-.48-.73 0-.11-.1-.24-.24-.29-.14-.06-.24-.3-.24-.62 0-.28-.1-.55-.2-.6-.13-.05-.29-.6-.4-1.32a5.94 5.94 0 00-.37-1.45c-.19-.21-.5-.27-.65-.13zm.22 5.57c.05.7.02.8-.27.8s-.32-.08-.25-.8c.01-.44.08-.86.12-.92.16-.27.34.14.4.92zm5.34 7.2c-.23.2-.1.38.24.33.43-.06.57-.44.17-.44-.17 0-.37.04-.41.1zm-1.23.52c-.13.08-.17.2-.13.26.18.16.96-.08.85-.26-.13-.19-.42-.19-.72 0zM13.32 6.62c-.27.27-.1.85.34 1.05.54.28.57.69.03.69-.38 0-.4.05-.57 1.75-.11.96-.24 1.96-.29 2.23-.14.8.05.94 1.04.75 2.37-.46 3.96-1.75 3.96-3.25 0-1.2-.68-2.52-1.29-2.52-.16 0-.35-.1-.41-.22-.07-.11-.48-.25-.93-.3a21.1 21.1 0 01-1.27-.2c-.27-.06-.53-.04-.6.02zm-1.54.54c0 .21.32.21.64 0 .19-.12.14-.16-.2-.16-.25 0-.44.07-.44.16zm62.4-.4c-.25.3-.06.83.34.93.43.11.34.65-.12.71-.4.07-.5.58-.56 3.22l-.05 1.51.72-.05a5.5 5.5 0 002.23-.68c.12-.08.4-.2.58-.3.2-.08.58-.45.85-.82.4-.54.48-.82.48-1.52 0-1.7-.91-2.65-2.87-3.01-1.37-.26-1.37-.26-1.6.01zm-1.47.42c.13.13.25.13.48 0 .25-.14.22-.16-.18-.17-.35 0-.43.04-.3.17zm-21.65.97c-.16.56-.13 1.88.03 1.88.3 0 .46-1.62.19-2.04-.1-.16-.16-.13-.22.16zm3.15 8.9c-.16.24.02.35.38.22.2-.04.3-.17.26-.25-.13-.2-.51-.18-.64.03zm-1.18.45c-.14.1-.16.17-.03.24.22.14.81-.04.81-.24 0-.18-.48-.2-.78 0zm-1.05.5c-.06.1-.08.21-.03.26.12.11.75-.11.75-.29 0-.2-.6-.17-.72.04zm57.06-4c-.22.23-.56.49-.75.55s-.35.2-.35.27c0 .29.42.15.9-.32.28-.23.63-.49.77-.54.14-.06.2-.17.16-.27-.16-.25-.3-.19-.73.3z"/>
</svg>
