<svg xmlns="http://www.w3.org/2000/svg" viewBox="0 0 90 28">
  <path d="M43.91 2.05c-.58 1.08-2.87 4.59-4.02 6.2-.06.09-.01.42.12.99.29 1.18.29 1.18.14 1.18-.07 0-.13-.04-.13-.1 0-.04-.17-.26-.38-.48a4.8 4.8 0 01-.71-1.04 19.6 19.6 0 00-1.78-3.05c-.23-.22-.25-.23-.42-.08-.16.13-.17.2-.1.6.17.72-.07 1.2-.55 1.2-.3 0-1.6-.87-2-1.35-.2-.22-.34-.3-.45-.26-.2.08-.2.04.12 1.6.16.73.28 1.48.28 1.68 0 .23.07.43.22.6.18.23 1.19 1.71 1.38 2.04.05.08-.03.12-.26.12-.3 0-.32-.01-.35-.4-.01-.2-.06-.39-.12-.4-.04-.02-.35.14-.66.36l-1.38.95-1.5 1.03c-.96.63-.94.6-.77 1.36.26 1.21.32 1.42.48 1.56.15.13 1.74.52 2.9.7.75.12 1.3.32 1.21.46a1.4 1.4 0 01-.4.28c-.2.1-.38.23-.4.3-.03.06 0 .63.08 1.27l.21 2.12c.05.53.12 1.09.17 1.24l.07.28.93.06c.5.03 1.56.12 2.34.2l3.13.3c1.03.09 1.76.19 1.82.25.11.11.95 1.6.95 1.68 0 .02-.13.2-.3.37-.18.22-.25.36-.18.4.06.03.17.47.25.97.16 1 .18 1.07.38 1.07.07 0 .24.07.36.15.13.08.28.13.35.1.07-.03.39-.48.7-1l1.37-2.15.79-1.2.38.78c.2.43.44.81.52.87.11.06.29 0 .72-.31l.56-.4v-.9c0-.66-.05-1.07-.2-1.62-.37-1.19-.38-1.29-.13-1.45.17-.1.23-.26.28-.69.06-.59.1-.64 1.17-1.96l.7-.87-.07-.97-.13-1.58-.07-.63-1.15-.61c-.64-.34-1.35-.7-1.59-.78-.5-.2-.5-.19-.64-2.03-.2-2.62-.6-5.65-.77-5.88a.44.44 0 00-.26-.1c-.23 0-.33-.23-.41-.93-.08-.78-.23-1.3-.37-1.3-.06 0-.5-.29-.96-.64a4.1 4.1 0 00-1.02-.64c-.11 0-.26.16-.45.48zm1.02.27c.67.4 1.09.71 1.09.84 0 .07-.4.55-.9 1.08-1.3 1.41-1.5 1.65-1.5 1.83 0 .17 1.09.96 1.75 1.27.55.25.62.35.79 1.1a36.46 36.46 0 00.6 2.37c.22.87.41.36.26-.72l-.17-1.42a38 38 0 00-.42-2.84c-.08-.21.14-.49.35-.46.18.03.21.12.32.81.06.43.15 1.22.2 1.75s.17 1.4.24 1.94c.27 1.93.27 1.82-.08 1.88-.18.04-.36.11-.41.18-.15.17-.17.67-.03.83.07.08.64.32 1.28.52 1.04.33 1.56.6 2.59 1.24.38.25.55.75.37 1.1-.07.12-.51.65-.97 1.17-.71.76-.86.97-.86 1.22 0 .74-.1.95-.9 1.88-.43.5-1.19 1.4-1.67 2.02-1.83 2.26-2.06 2.53-2.13 2.53-.1 0-.22-.28-.85-1.98-.3-.81-.6-1.54-.64-1.62-.1-.19-.39-.23-2.53-.35-.85-.06-1.93-.14-2.4-.2-.45-.05-1.4-.13-2.1-.17s-1.32-.12-1.36-.17c-.06-.06-.12-.4-.15-.78l-.06-.68.64-.42a59.31 59.31 0 013.9-2.48c.06 0 .1-.05.1-.1s.13-.22.29-.37c.27-.25.28-.29.15-.43-.09-.1-.37-.24-.64-.35-.48-.16-1.41-.6-2.13-.97l-.36-.2.06.89-.44.15c-.69.25-.92.44-.86.7.01.12 0 .22-.02.22a21.8 21.8 0 01-3.06-.87c-1.08-.16-1.03-.15-.9-.3.07-.09.47-.38.9-.66l.83-.56c.08-.1 1.28-.93 1.42-.99.1-.03.19.05.28.28l.14.34.6-.06c.52-.06.64-.04.8.1.08.09.23.13.3.1s.32.09.54.25c.74.55 1.63 1.1 1.75 1.06.07-.03.02-.1-.12-.2l-.61-.44c-.22-.15-.44-.39-.5-.52s-.14-.32-.21-.4a29.98 29.98 0 01-1.56-2.78 17 17 0 00-.85-1.52 2.74 2.74 0 01-.37-.65c.03-.02.31.1.65.26s.8.32 1.05.34l.43.04.18-.47c.13-.35.2-.44.3-.37.16.14.82 1.31 1.45 2.55.5 1.01.65 1.19.75.9.04-.07.1-.14.15-.14.14 0 1.52 1.29 3.78 3.49 2.07 2.04 2 1.93 2.8 3.85.36.87.72 1.5.9 1.5.1.02-.01-.37-.29-1.04-.2-.5-.9-2.44-1.53-4.3a74.82 74.82 0 01-1.07-3.4c-.5-1.9-.69-2.47-.98-3.1l-.35-.68c-.1 0-1.9 1.8-1.9 1.9 0 .23-.35.12-.55-.15l-.2-.28 1.6-2.43c.88-1.35 1.78-2.74 2-3.1.22-.35.45-.65.48-.65.05 0 .3.13.57.29zm1.18 4.56v.41l-.28-.14c-.33-.17-.34-.29-.08-.58.27-.27.36-.19.36.3zm-2.53 4.53c.23.75.54 1.71.69 2.15.13.43.23.8.22.82-.04.03-.95-.79-2.34-2.09l-.78-.73.17-.23a7.08 7.08 0 011.47-1.28c.1 0 .27.4.57 1.36zm-4.31 3.36c.16.17.13.26-.08.26-.1 0-.18-.02-.18-.03l-.06-.19c-.06-.17.15-.2.32-.04zm-1.49.94c.15.1.08.2-.25.38l-.26.13-.03-.36c-.03-.35-.02-.36.2-.3.13.02.29.09.34.14zm-1.09.87c-.4.3-.74.5-.79.44-.11-.1.08-.33.32-.37.13-.04.32-.1.4-.14.24-.15.3-.1.08.07zm12.42 4.4a82.62 82.62 0 00.5 2.12c0 .1-.85.43-.92.35-.14-.16-.83-1.98-.83-2.18 0-.3.92-1.33 1.02-1.15.03.07.13.45.23.86zm-1.68 1.25c-.03.1-.11.18-.19.18-.1 0-.1-.04-.02-.18.05-.1.13-.19.17-.19.05 0 .07.08.04.19zm-.56.8l-.73.97c-.29.4-.54.7-.56.68-.03-.04.96-1.5 1.25-1.84.22-.26.26-.08.04.2zm-1.88 2.63c-.37.6-.35.57-.4.51s.62-1.09.68-1.03c.02.02-.1.25-.28.51z"/>
  <path d="M46.12 11.48c0 .1.07.5.16.88.15.69.15.69.62.95.42.2.5.3.54.6.03.18.25 1 .47 1.81s.43 1.7.46 1.96l.06.48-.76.88c-.43.48-.8.88-.82.88s-.38-.71-.79-1.58c-.72-1.53-.75-1.58-1.38-2.13-.35-.3-1.47-1.36-2.47-2.34-1.69-1.65-2-1.93-2-1.7 0 .07.62 1.4 1.69 3.6.75 1.57.79 1.75.49 2.4-.12.27-.32.64-.43.8-.16.23-.17.31-.07.34l.72.2a31.27 31.27 0 011.68.47l.54.14-.03.34c-.02.27-.06.35-.25.36-.37.06-.62-.05-.69-.29-.07-.3-.44-.4-1.61-.49-.62-.04-.85-.03-.8.05.02.05.25.13.5.15.74.1 1.43.26 1.56.36.07.05.37.58.67 1.18s.58 1.1.63 1.1c.12 0 .9-.88 1.62-1.83.35-.44.97-1.2 1.39-1.68.4-.48 1.19-1.42 1.72-2.08.54-.66 1.1-1.32 1.26-1.46.26-.24.29-.3.23-.6a.9.9 0 00-.2-.46 22.81 22.81 0 00-3.08-1.44 2.1 2.1 0 00-.66-.23c-.3 0-.47-.25-.61-.9-.12-.6-.37-1.1-.36-.72zm3.43 4.88c.08.06.16.14.16.17 0 .16-.85 1.18-.95 1.15-.06-.02-.2-.4-.32-.86-.1-.45-.23-.92-.26-1.04-.05-.2-.03-.2.58.14l.79.44zm-5.27 1.84c.71.7.89.93 1.28 1.74.25.51.46.98.46 1.04 0 .07-.09.18-.18.27-.2.18-.22.15-.34-.55-.08-.49-.27-.84-.47-.91l-1-.25-.85-.21-.04-.95c-.02-.58-.07-.99-.15-1.06-.2-.21-.1-.27.18-.1.16.09.66.53 1.11.98zM38.7 16.5c-1.67 1.69-1.66 1.64-.58 1.95l1.68.51c1.08.33 1.42.38 1.42.2 0-.05-.23-.53-.5-1.05-.28-.52-.51-1.03-.51-1.13s-.08-.24-.17-.3c-.16-.12-.39-.46-.39-.57 0-.03.15-.22.33-.43.3-.37.41-.65.25-.65-.05 0-.73.67-1.53 1.48zm1.88 1.86l.3.55-.37-.05c-.5-.08-.94-.23-1-.33-.06-.1.5-.73.66-.73.06 0 .24.25.4.56zM69.92 2.22l-1.3.66-.06.7-.14 1.46c-.08.63-.07.82.05 1.04.08.15.14.33.14.4 0 .22-2.77 1.8-2.95 1.68-.14-.08-.11-.3.05-.55.2-.3.11-.5-.37-.88-.24-.17-.56-.42-.7-.54-.27-.21-.31-.22-.86-.12-.8.15-.89.14-.89-.08 0-.25-.25-.23-1.34.15-1.49.52-3.01.96-3.32.96h-.3l-.06.85c-.09 1.38-.1 1.32.42 1.73.56.45.53.46-1.07.19-1.74-.29-1.87-.26-2.39.5-.23.34-.24.4-.24 1.75 0 1.03.04 1.45.13 1.57.07.1.15.28.18.4.06.17.04.2-.19.18-.24-.02-.26 0-.31.47-.04.26-.11.53-.17.6-.05.07-.07.15-.04.18.03.04-.13.07-.37.07-.23 0-.44.03-.47.07-.01.04-.07.53-.1 1.1-.05.8-.04 1.04.05 1.04.06 0 .84.24 1.72.52l1.63.53-.07.81c-.05.77-.05.82.12.82.1 0 .28-.04.4-.09.13-.04.44-.15.7-.22l.47-.15-.02.56c-.02.52 0 .57.27.8l.8.7c.5.41.54.43.7.3.14-.13.26-.42.43-1.05.01-.05.23-.13.47-.16.24-.04.64-.13.88-.2.4-.14.46-.14.85 0l.42.17v.5c0 .34.04.5.12.5a51.4 51.4 0 005.7-2.77c.03 0 .06.52.05 1.17l-.01 1.18 2.43 1.23a39 39 0 002.93 1.36c.5.15 1.24.6 1.74 1.05.48.45 1.9 1.4 1.98 1.32a8.9 8.9 0 00.31-4.4c-.06-.53-.06-.53.14-.42.2.1.2.16.18 1.06-.03.93-.02.96.2 1.06.11.06.21.08.23.07l.62-.9.6-.88.12-1.08c.15-1.3.33-1-1.63-2.53a54.03 54.03 0 01-6.18-5.46l-.57-.52.1-.46c.14-.64.1-3.04-.07-4.75l-.42-4.68c-.1-1.05-.13-1.22-.27-1.22-.08 0-.74.3-1.45.66zm1.63 2.07l.24 2.44c.12.8.32 3.92.25 3.98a.68.68 0 01-.26.12c-.16.05-.2-.03-.45-.78-.25-.81-.25-.84-.08-.97.1-.06.15-.14.12-.17-.06-.06-.4.08-1.56.6-.33.16-1.03.46-1.57.68-2.38.98-4.75 2.01-5.9 2.55-1.2.58-1.29.61-2.02.88-.38.15-.7.31-.73.39-.05.17.58.09 2.1-.27.64-.15 1.93-.42 2.88-.6l1.74-.33 1.12.59c.63.32 1.68.9 2.33 1.26.67.37 1.64.88 2.19 1.13s1.23.6 1.52.77c.93.56 1.05.38.33-.5-1.82-2.22-2.05-2.52-2.05-2.74 0-.43.31-.24 1.33.8.92.92 2.84 2.59 4.22 3.68l1.01.81c.46.38 1.22.91 1.7 1.22.12.07.22.18.22.24 0 .08-.65 1.05-1.08 1.6-.02.01-.05 0-.09-.03-.07-.07.21-.72.5-1.14l.21-.3-.21-.18c-1.24-1.05-2.3-1.77-2.44-1.64-.01.03.15.2.38.4s.44.41.48.48c.03.09.1.94.13 1.9.05.96.11 2.08.15 2.47.04.47.03.72-.03.72-.1 0-1.94-1.34-2.98-2.16-.28-.22-.99-.75-1.57-1.16s-1.32-.97-1.65-1.24l-.94-.73c-.28-.2-.36-.32-.41-.67a1.28 1.28 0 01-.01-.47c.02-.03.48.3 1 .73 1.12.91 1.5 1.18 1.64 1.18.07 0 0-.1-.14-.2s-.7-.59-1.21-1.06c-.52-.47-1.04-.92-1.17-1-.35-.23-.3-.38.16-.58.37-.17.58-.35.5-.44-.02-.01-.26.07-.54.19s-1.77.73-3.31 1.33a148.2 148.2 0 00-4.03 1.66l-.05-.38c-.03-.37-.06-.4-.44-.6-.48-.22-.52-.35-.18-.6.36-.27.64-.16.64.26 0 .28.03.31.27.31.15 0 .89-.2 1.64-.44l1.78-.58c.23-.07.67-.2 1-.33.3-.12.65-.22.74-.22s.5-.16.9-.37c.4-.2.62-.35.5-.32-.7.16-.78.15-1.18-.16-1.76-1.38-3.4-2.55-3.47-2.48a1.2 1.2 0 00-.12.5c-.05.4-.08.43-.36.49-.42.07-.5.22-.13.22.15 0 .42.06.6.13.35.15.83.59.74.67-.04.04-.1.01-.16-.04-.07-.07-.3-.12-.54-.12-.36 0-.52.07-1.07.46-.35.24-1.08.88-1.63 1.42-.84.83-1.06 1-1.47 1.12-.61.19-.8.18-.8-.03 0-.08.1-.6.21-1.13s.25-1.22.28-1.52l.05-.55-.16.36c-.13.29-.25.4-.62.53-.26.1-.53.17-.62.17-.16 0-2.26-.98-2.32-1.08-.04-.07.28-2 .39-2.42.05-.18.29-.34 1.14-.76 1.02-.5 1.35-.71 1.05-.71-.07 0-.17.03-.2.09-.02.04-.11.09-.19.09-.2 0-.17-.55.04-.56l1.1-.04c1-.05 1.11.02.5.29-.18.08-.3.16-.23.19.06.02.26-.03.45-.1.53-.23.61-.2.58.2-.03.3-.1.38-.56.7-.3.2-.51.38-.5.4.08.07 1.82-.67 3.29-1.4l1.88-.93c.59-.27.23-.25-.7.04-.46.16-.86.27-.87.26s.01-.2.05-.43c.04-.37.09-.44.47-.64.63-.33.85-.48.8-.52-.05-.06-1.34.47-2.55 1.04-.8.37-.92.4-1.34.34-.62-.08-.66-.12-.35-.33.29-.2 1.1-.63 1.18-.63.03 0 .03.1-.01.23-.1.42.06.24.33-.35.3-.65.45-1.36.29-1.36-.06 0-.15.1-.2.24s-.1.23-.1.23l-1.04.17c-.82.15-1.04.22-1.17.39-.15.2-.17.2-.39.05-.43-.27-2.1-1.63-2.1-1.7 0-.06 3.46-1.23 3.64-1.22.04 0 .05.11.02.24-.06.24-.05.25.29.2 1.07-.17 1.55-.17 1.79 0 .13.09.4.26.58.4.35.24.48.54.15.36a.68.68 0 01-.24-.18c-.1-.18-.23-.1-.23.15 0 .14-.13.7-.28 1.26-.3 1.04-.32 1.48-.03.57.14-.42.24-.58.51-.76.35-.23.63-.25.7-.05.01.05-.1.17-.25.26-.17.08-.28.17-.25.2.03.02.17-.03.33-.1.15-.08.34-.15.42-.15s.24-.1.36-.21c.12-.11.7-.44 1.27-.73l1.47-.78.44-.25.3.25c.31.27.54.32.54.12 0-.14-.24-.93-.79-2.64a7.63 7.63 0 01-.31-1.16c0-.15.22-.29 1.09-.7.59-.28 1.1-.48 1.14-.46.03.03.15 1 .25 2.18zm-13.99 5.95c.65.09 1.92.25 2.83.33 1.55.15 1.98.23 1.85.36-.04.03-.84 0-1.8-.05l-3.05-.15-1.32-.06v.73c0 .4.05 1.01.1 1.37.06.35.11 1.05.13 1.53l.04.94a28.65 28.65 0 013.97 1.94c0 .03-.11.12-.26.2-.24.12-.37.09-2.04-.46-1-.34-2.07-.67-2.4-.74a5.24 5.24 0 01-.77-.23c-.15-.09-.15-.12-.03-.25.2-.25.23-.42.1-.74l-.13-.31.4.06c.2.04.46.11.55.16s.2.07.21.04c.05-.04-.14-.87-.66-2.91-.32-1.28-.32-1.33-.16-1.51.31-.35.7-.54 1-.48.15.03.8.14 1.44.23zm13.19 2.73c.14.33.27.5.38.5.14 0 .16.1.16.78 0 .56-.03.78-.12.78-.06 0-.37-.14-.67-.3-2.31-1.28-2.81-1.57-2.81-1.62 0-.07 1.17-.61 1.98-.92l.46-.17.2.24c.12.13.3.46.42.72zm-13.15.37c-.15 1.07-.27 1.62-.38 1.66-.07.02-.23-.02-.36-.12-.18-.12-.22-.18-.14-.27.08-.09.08-.21.01-.43a4.7 4.7 0 01-.15-.79l-.07-.48h1.15l-.06.43zm.59 3.93l.32.14-.44.2a6.5 6.5 0 01-.68.25c-.24.06-.24.05-.18-.34.04-.22.09-.43.11-.47.05-.07.37 0 .87.22zm2.43.68l-.22 1.14c-.17.84-.2.85-.74.28-.72-.77-.79-.89-.6-1.1.09-.1.3-.23.45-.3.17-.06.48-.24.7-.37.23-.14.44-.26.47-.26.04 0 .01.27-.06.62zm6.22-.5c-.06.16-.26.2-.26.04 0-.09.07-.15.15-.15s.13.04.11.1zm-.53.2c0 .02-.19.1-.42.18-.41.14-.6.03-.2-.12.2-.09.61-.12.61-.06zm4.84 2.04a32.33 32.33 0 013.36 2.28c0 .1-.23 0-1.97-1.03-.92-.52-2-1.13-2.38-1.33-.59-.32-.72-.42-.72-.6 0-.34.27-.23 1.7.68zM14.55 1.93c-.92.26-1.84.84-2.35 1.5-.24.29-.45.54-.49.54-.03 0-.16.56-.29 1.25-.12.7-.26 1.32-.32 1.4-.09.13-.65.03-2.4-.43-.26-.08-.3-.06-.38.16l-.38 1c-.17.43-.28.85-.25.93.02.08.07.57.1 1.08.04.5.08.96.11 1 .1.16.84.43 1.35.49l.52.06v.74c0 .69.02.75.33 1.18.17.24.47.75.65 1.11s.7 1.34 1.15 2.15c.45.82.89 1.68.98 1.92l.17.45-.28.23c-.16.13-.83.78-1.5 1.43l-1.23 1.2.11.29c.06.16.2.83.3 1.5.23 1.3.16 1.2.88 1.39.1.03.1.06.01.17s-.09.28 0 .78c.05.35.1.84.1 1.1 0 .35.07.6.33 1.04.17.32.41.68.52.8l.22.2.41-.27c.57-.36 2.36-1.75 3.3-2.56.44-.39.85-.67.97-.67.17 0 1.26.17 2.87.45.3.05.73.1.96.1l.42-.01 2.49-2.71-.03-1.02a5.82 5.82 0 00-.18-1.44l-.16-.45.46-.47c.47-.47 2.22-1.77 2.81-2.06.65-.33.65-.33.65-1.59 0-1.29.08-1.19-.92-1.04-1.17.17-7.1.05-7.1-.14 0-.12-.92-.87-1.07-.87-.05 0-.3.27-.55.6a5.16 5.16 0 01-1.34 1.33c-.05 0-.09-.31-.09-.69 0-.4-.05-.8-.12-.95a5.97 5.97 0 01-.19-1.3l-.1-1.65c-.06-.45-.05-.57.06-.57.18 0 .75-.17.9-.28.11-.06.17-.35.22-1.03.1-1.3.1-1.56-.1-1.7-.13-.1-.11-.23.15-1.7.35-1.9.37-2.62.1-3.13-.42-.84-1.56-1.18-2.78-.84zm1.58.33c.76.07 1.14.58 1.13 1.47a3.5 3.5 0 01-1 2.54c-.72.8-2.45 1.12-3.41.6a2.07 2.07 0 01-1.07-1.73c.01-1.47 2.03-3.14 3.57-2.96l.78.08zM10.97 7c2.54.64 3.2.76 4.69.81 1.18.05 1.46.1 1.23.25-.04.03-.45.1-.9.14-.45.05-.97.13-1.14.16l-.33.06.93.2.06.78c.04.42.08.83.12.91.03.07.1.74.14 1.49.11 1.64.36 3.71.47 3.82.16.18.08.56-.17.82-.14.13-.2.25-.13.25s.66-.52 1.3-1.16l1.18-1.16.25.17c.3.2.27.38-.28 1.34-.44.76-.5 1-.27 1 .18 0 .8-.32 1.32-.67.21-.15.43-.24.48-.2.05.03.1-.12.1-.37v-.4l.7-.07c.39-.04 1.5-.05 2.46 0a26.38 26.38 0 003.36-.1c.06.07-4.27 2.29-4.5 2.3-.17.01-.44.19-.78.51-.53.48-.65.5-.71.15-.05-.27-.41-.28-1.93-.06-.71.12-1.33.2-1.38.2s-.1-.12-.13-.28c-.05-.23.05-.49.59-1.5.36-.67.66-1.26.66-1.31.02-.28-.28-.03-1.17.98-.55.62-.93 1.1-.85 1.07.14-.05.2.05.35.6l.21.71.48.72.46.69.37-.05c.58-.07 2.67-.66 3.67-1.03.51-.19.95-.3 1-.27.11.15.64 1.79.64 2.04 0 .33-2.33 2.7-2.66 2.7-.12 0-.63-.08-1.13-.18l-1.17-.22-.85-.14a36.73 36.73 0 00-5.26-.46c-.94-.01-1.73-.05-1.78-.1-.12-.12-.1-.74.04-.87l1.05-.93 1.92-1.78a5.05 5.05 0 011.1-.92c.06.02.14.17.19.34.07.3.06.33-1.31 1.7-1.1 1.1-1.37 1.42-1.28 1.51.06.07.2.11.3.11.22 0 2.07.35 2.17.42.04.02.57.12 1.19.22s1.18.22 1.24.28c.07.05.24.08.4.05.29-.06 2.73.42 3.05.6.25.13.34.08.61-.35.12-.2.45-.59.75-.9.66-.68 1.01-1.14.94-1.21-.03-.03-.17.07-.29.23-.24.27-.24.28-1.5.35a8.29 8.29 0 01-2.1 0c-.46-.05-.48-.04-.9.36-.49.46-.73.5-1.79.32-.83-.16-.85-.2-.27-.54.53-.3.7-.5.54-.66-.05-.06-.34-.2-.63-.32-.54-.21-.55-.22-.66-.7-.17-.8-.15-1.11.11-1.46.28-.37.3-.46.07-.25-.26.24-.38.18-.44-.2-.18-1.1-.86-3.4-.95-3.16-.01.05.01.24.07.4s.1.4.1.54c0 .21-.06.27-.34.37-.3.1-.35.1-.46-.07a138.9 138.9 0 01-2.57-4.41c-.44-.78-.87-1.65-.87-1.78 0-.07.1-.28.23-.46s.23-.37.23-.4c0-.04-.2-.08-.43-.1-.66-.07-1.97-.44-1.97-.57 0-.06.11-.38.25-.72.22-.53.3-.63.48-.63.12 0 1.03.2 2.03.45zm4.38 13.8c.02.09.05.25.05.37 0 .23-.22.29-.59.14-.16-.05-.15-.08.08-.36.28-.33.37-.36.46-.15zm.44 1.93c.3.04.55.1.58.15.04.05.02.08-.03.08a57.62 57.62 0 00-4.02 2.86c-.07 0-.52-.85-.52-.98 0-.06.2-.27.45-.47.24-.18.74-.61 1.12-.96.89-.77.98-.82 1.48-.77l.94.1z"/>
  <path d="M11.17 8.9c-.6.67-.68.92-.32.92.2 0 1.15 1.6 2.25 3.74.46.88.87 1.65.92 1.7.24.24.13-.16-.38-1.48-.32-.81-.77-2.04-1.02-2.74-.47-1.37-.96-2.46-1.08-2.46-.05 0-.22.14-.37.32z"/>
</svg>
